/* XPM */
static char *result[] = {
/* columns rows colors chars-per-pixel */
"64 64 228 2 ",
"   c #0F0F18",
".  c #0E121A",
"X  c #12141A",
"o  c #161819",
"O  c #1C1C1A",
"+  c #101115",
"@  c #221F19",
"#  c #2D2317",
"$  c #26211D",
"%  c #2B231A",
"&  c #322616",
"*  c #352A16",
"=  c #372B19",
"-  c #393215",
";  c #3A3817",
":  c #332922",
">  c #382B21",
",  c #3B3927",
"<  c #4D340F",
"1  c #593C0D",
"2  c #483414",
"3  c #553B13",
"4  c #583A13",
"5  c #472F12",
"6  c #693B15",
"7  c #4A3528",
"8  c #4F3827",
"9  c #503E29",
"0  c #573A22",
"q  c #6A3F24",
"w  c #5B480D",
"e  c #584518",
"r  c #67460B",
"t  c #7B4909",
"y  c #65520D",
"u  c #675C0F",
"i  c #78580C",
"p  c #644615",
"a  c #794519",
"s  c #645411",
"d  c #725219",
"f  c #6B6B17",
"g  c #776119",
"h  c #746B12",
"j  c #594129",
"k  c #62422B",
"l  c #6E4629",
"z  c #774C28",
"x  c #7D5128",
"c  c #7C5E2E",
"v  c #775835",
"b  c #775835",
"n  c #655634",
"m  c #6C6F34",
"M  c #6B6949",
"N  c #84470A",
"B  c #974B06",
"V  c #86560A",
"C  c #955A08",
"Z  c #8A4912",
"A  c #88551B",
"S  c #965918",
"D  c #AC5500",
"F  c #A65905",
"G  c #B65A00",
"H  c #B55900",
"J  c #A2570B",
"K  c #996607",
"L  c #9C7C05",
"P  c #977809",
"I  c #8F6919",
"U  c #99611E",
"Y  c #986615",
"T  c #8D770F",
"R  c #A86808",
"E  c #BA6302",
"W  c #B86503",
"Q  c #BB7305",
"!  c #B67407",
"~  c #A76713",
"^  c #B36F10",
"/  c #B87216",
"(  c #875623",
")  c #90702A",
"_  c #A37838",
"`  c #C26B00",
"'  c #C26400",
"]  c #CD7400",
"[  c #C57A06",
"{  c #CC7B04",
"}  c #C47506",
"|  c #D17C00",
" . c #C0751E",
".. c #9C7140",
"X. c #9A6F42",
"o. c #9E8708",
"O. c #958710",
"+. c #A89B08",
"@. c #B89609",
"#. c #BD821C",
"$. c #B68B12",
"%. c #BBB408",
"&. c #AAA810",
"*. c #B5902E",
"=. c #A8AC38",
"-. c #CD8503",
";. c #C48404",
":. c #C79909",
">. c #D29302",
",. c #CB8717",
"<. c #DA951D",
"1. c #D6951D",
"2. c #D38D0F",
"3. c #CBA306",
"4. c #CDAB03",
"5. c #D5A505",
"6. c #D5B503",
"7. c #D5AC1B",
"8. c #D4B50C",
"9. c #E8BA1A",
"0. c #E4B20F",
"q. c #CD9C36",
"w. c #DBAD2C",
"e. c #D6AA38",
"r. c #DCB638",
"t. c #CEA12C",
"y. c #E5BC24",
"u. c #DCD908",
"i. c #D4CD0A",
"p. c #EDC604",
"a. c #E9C705",
"s. c #EBD802",
"d. c #F2D300",
"f. c #F8DC04",
"g. c #EDC51C",
"h. c #EAC418",
"j. c #F2C91B",
"k. c #F5D313",
"l. c #E6E406",
"z. c #F6E400",
"x. c #FBE401",
"c. c #F7EA06",
"v. c #FAF504",
"b. c #F8E614",
"n. c #FCFC1B",
"m. c #FBF31B",
"M. c #EFD431",
"N. c #F9ED29",
"B. c #FCFA36",
"V. c #F8EF3B",
"C. c #9F8B56",
"Z. c #B6834B",
"A. c #B8854D",
"S. c #BD8D44",
"D. c #BC8A52",
"F. c #BA8651",
"G. c #A49C6B",
"H. c #A8AA61",
"J. c #C79846",
"K. c #D29A48",
"L. c #C38F56",
"P. c #C38F5B",
"I. c #C4935B",
"U. c #CA965E",
"Y. c #C89957",
"T. c #D9B94B",
"R. c #D4A951",
"E. c #E5B34A",
"W. c #EAB949",
"Q. c #E1AD49",
"!. c #CC9B64",
"~. c #CA9965",
"^. c #CCA568",
"/. c #D3A668",
"(. c #D7B768",
"). c #CEA672",
"_. c #D6AC75",
"`. c #D4A978",
"'. c #D7B978",
"]. c #F3CA47",
"[. c #EAD54C",
"{. c #F3D549",
"}. c #F9DA45",
"|. c #EACB55",
" X c #DCE042",
".X c #FDE849",
"XX c #FFFF45",
"oX c #FBF949",
"OX c #FAF951",
"+X c #E8C968",
"@X c #E6CA7B",
"#X c #F0D47C",
"$X c #F7DA7A",
"%X c #EBD36E",
"&X c #DDE06D",
"*X c #FAF565",
"=X c #EEE579",
"-X c #F9E97C",
";X c #FAE976",
":X c #FEFE77",
">X c #FEFE7A",
",X c #FBF278",
"<X c #F9EA64",
"1X c #DDBD85",
"2X c #DCCA8A",
"3X c #DCDB89",
"4X c #E3C48D",
"5X c #E8D788",
"6X c #E8D698",
"7X c #F4E486",
"8X c #F5ED94",
"9X c #F9ED9D",
"0X c #F5E99C",
"qX c #FCF49E",
"wX c #FDFC9E",
"eX c #FEF788",
"rX c #EFDDA3",
"tX c #F0DFA6",
"yX c #F5ECA6",
"uX c #FFFDA3",
"iX c #FAF3AC",
"pX c #FEF2A1",
"aX c #FEFCB9",
"sX c #F7F1B6",
"dX c #F3E8AA",
"fX c #FFFEC3",
"gX c #FFFFCE",
"hX c None",
/* pixels */
"hXhXhXhXhXhXhXhXhXhXhXhXhXhXhXhXhXhXhXhXhXhXhXhXhXhXhXhXhXhXhXhXhXhXhXhXhXhXhXhXhXhXhXhXhXhXhXhXhXhXhXhXhXhXhXhXhXhXhXhXhXhXhXhX",
"hXhXhXhXhXhXhXhXhXhXhXhXhXhXhXhXhXhXhXhXhXhXhXhXhXhXhXhXhXhXhXhXhXhXhXhXhXhXhXhXhXhXhXhXhXhXhXhXhXhXhXhXhXhXhXhXhXhXhXhXhXhXhXhX",
"hXhXhXhXhXhXhXhXhXhXhXhXhXhXhXhXhXhXhXhXhXhXhXhXhXhXhXhXhXhXhXhXhXhXhXhXhXhXhXhXhXhXhXhXhXhXhXhXhXhXhXhXhXhXhXhXhXhXhXhXhXhXhXhX",
"hXhXhXhXhXhXhXhXhXhXhXhXhXhXhXhXhXhXhXhXhXhXhXhXhXhXhXhXhXhXhXhXhXhXhXhXhXhXhXhXhXhXhXhXhXhXhXhXhXhXhXhXhXhXhXhXhXhXhXhXhXhXhXhX",
"hXhXhXhXhXhXhXhXhXhXhXhXhXhXhXhXhXhXhXhXhXhXhXhXhXhXhXhXhXhXhXhXhXhXhXhXhXhXhXhXhXhXhXhXhXhXhXhXhXhXhXhXhXhXhXhXhXhXhXhXhXhXhXhX",
"hXhXhXhXhXhXhXhXhXhXhXhXhXhXhXhXhXhXhXhXhXhXhXhXhXhXhXhXhXhXhXhXhXhXhXhXhXhXhXhXhXhXhXhXhXhXhXhXhXhXhXhXhXhXhXhXhXhXhXhXhXhXhXhX",
"hXhXhXhXhXhXhXhXhXhXhXhXhXhXhXhXhXhXhXhXhXhXhXhXhXhXhXhXhXhXhXhXhXhXhXhXhXhXhXhXhXhXhXhXhXhXhXhXhXhXhXhXhXhXhXhXhXhXhXhXhXhXhXhX",
"hXhXhXhXhXhXhXhXhXhXhXhXhXhXhXhXhXhXhXhXhXhXhXhXhXhXhXhXhXhXhXhXhXhXhXhXhXhXhXhXhXhXhXhXhXhXhXhXhXhXhXhXhXhXhXhXhXhXhXhXhXhXhXhX",
"hXhXhXhXhXhXhXhXhXhXhXhXhXhXhXhXhXhXhXhXhXhXhXhXhXhXhXhXhXhXhXhXhXhXhXhXhXhXhXhXhXhXhXhXhXhXhXhXhXhXhXhXhXhXhXhXhXhXhXhXhXhXhXhX",
"hXhXhXhXhXhXhXhXhXhXhXhXhXhXhXhXhXhXhXhXhXhXhXhXhXhXhXhXhXhXhXhXhXhXhXhXhXhXhXhXhXhXhXhXhXhXhXhXhXhXhXhXhXhXhXhXhXhXhXhXhXhXhXhX",
"hXhXhXhXhXhXhXhXhXhXhXhXhXhXhXhXhXhXhXhXhXhXhXhXhXhXhXhXhXhXhXhXhXhXhXhXhXhXhXhXhXhXhXhXhXhXhXhXhXhXhXhXhXhXhXhXhXhXhXhXhXhXhXhX",
"hXhXhXhXhXhXhXhXhXhXhXhXhXhXhXhXhXhXhXhXhXhXhXhXhXhXhXhXhXhXhXhXhXhXhXhXhXhXhXhXhXhXhXhXhXhXhXhXhXhXhXhXhXhXhXhXhXhXhXhXhXhXhXhX",
"hXhXhXhXhXhXhXhXhXhXhXhXhXhXhXhXhXhXhXhXhXhXhXhXhXhXhXhXhXhXhXhXhXhXhXhXhXhXhXhXhXhXhXhXhXhXhXhXhXhXhXhXhXhXhXhXhXhXhXhXhXhXhXhX",
"hXhXhXhXhXhXhXhXhXhXhXhXhXhXhXhXhXhXhXhXhXhXhXhXhXhXhXhXhXhXhXhXhXhXhXhXhXhXhXhXhXhXhXhXhXhXhXhXhXhXhXhXhXhXhXhXhXhXhXhXhXhXhXhX",
"hXhXhXhXhXhXhXhXhXhXhXhXhXhXhXhXhXhXhXhXhXhXhXhXhXhXhXhXhXhXhXhXhXhXhXhXhXhXhXhXhXhXhXhXhXhXhXhXhXhXhXhXhXhXhXhXhXhXhXhXhXhXhXhX",
"hXhXhXhXhXhXhXhXhXhXhXhXhXhXhXhXhXhXhXhXhXhXhXhXhXhXhXhXhXhXhXhXhXhXhXhXhXhXhXhXhXhXhXhXhXhXhXhXhXhXhXhXhXhXhXhXhXhXhXhXhXhXhXhX",
"hXhXhXhXhXhXhXhXhXhXhXhXhXX X X X . . X X X X X X X X X X o X X X o X X X X o X o X X X X X X X X X . hXhXhXhXhXhXhXhXhXhXhXhXhX",
"hXhXhXhXhXhXhXhXhXhXhXhXO O O O O O O O O O O O O O O O O @ O o O O O O O O O O O O O O O O O O O O O O hXhXhXhXhXhXhXhXhXhXhXhX",
"hXhXhXhXhXhXhXhXhXhXhXhX* - - - - - - - : % = : : : : : : : : : : : : : : : : : : : % = = = - - - - - = hXhXhXhXhXhXhXhXhXhXhXhX",
"hXhXhXhXhXhXhXhXhXhXhX; w w y y y y s e e j 9 9 9 9 8 9 9 9 9 9 9 9 9 9 9 9 9 9 j j j e e s y y y y w w 2 hXhXhXhXhXhXhXhXhXhXhX",
"hXhXhXhXhXhXhXhXhXo & e i T L o.o.P T I c c v v ( b b b b b b b v b b b b b b b n v c c I T o.o.o.L T i e & o hXhXhXhXhXhXhXhXhX",
"hXhXhXhXhXhXhXhXX @ ; s P @.:.5.4.4.:.$.*._ X._ X.X.X.X._ X.X._ _ X.X.X...X.....X.X._ *.$.:.3.5.4.3.@.T s - @ X hXhXhXhXhXhXhXhX",
"hXhXhXhXhXhXhXhX# * e h o.7.h.j.j.g.y.w.q.S.Z.Z.Z.Z.L._ _ F.A.A.Z.Z.Z.Z._ D.F._ Z.Z.*.q.w.y.g.j.j.h.7.O.g e * @ hXhXhXhXhXhXhXhX",
"hXhXhXhXhXhXhX* 5 3 s ) q.r.}.}.}.}.].|.R.Y.D.D.L.P.P.P.P.P.L.P.L.L.L.D.L.L.~.L.L.I.Y.R.W.].}.}.}.}.r.t.) u 4 < * hXhXhXhXhXhXhX",
"hXhXhXhXhXO & < 6 i Y *.T.+X;X,X-X,X$X+X(./.!.U.U.U.U.U.U.U.U.U.U.U.U.U.U.U.U.U.I.U./.(.%X$X;X,X,X;X+XT.*.Y V r < * O hXhXhXhXhX",
"hXhXhXhXX O * 1 t R ,.e.+X7XqXuXuXpX8X5X'./.!.!.!.!.!.!.!.!.!.!.!.!.!.!.!.!.!.!.~.!./.'.5X8XqXiXuXqX7X+Xe.#.R i 1 * O X hXhXhXhX",
"hXhXhXhXX O * 1 C Q 1.W.$X9XaXfXfXaXiX6X2X^.~.^.!.U.!.!.!.!.~.~.!.!.!.!.!.!.!.!.~.!.`.1X6XiXaXfXfXaX9X$XW.<.Q V 1 * O X hXhXhXhX",
"hXhXhXhXX O * w K ;.7.].$XiXfXgXgXfXsXrX1X^.~.D.P.P.U.P.P.U.P.P.I.I.I.U.I.I.I.I.I.I.^.2XrXiXfXgXgXfXiX$XW.0.;.K w * @   hXhXhXhX",
"hXhXhXhXX O - r K :.9.].7XpXfXgXgXfXsX6X1XD.D.D.L.L.L.L._ P.P.L.D.D.D.L.D.D.L.F.D.D.~.'.6XsXgXgXgXfXiX;X].9.>.K r * O . hXhXhXhX",
"hXhXhXhXX @ * y P :.9.}.;XpXaXfXfXaXyX3X'.~.A.Z.L._ F.F._ L.L._ A.A.A.A.A.A.Z.Z.Z.A.D.'.6XyXaXfXfXaXqX;X}.9.:.P y - O X hXhXhXhX",
"hXhXhXhX. O - y P 3.h.M.<XeXuXuXuXuX8X@X(.Y.A.Z._ _ L.F.P._ L.F.A.A.Z.A.Z.A.Z.Z.Z.A.D.(.@X8XwXuXuXwXeX<XM.9.3.P y - O X hXhXhXhX",
"hXhXhXhX. O - y L 3.a.M..X*X:X>X>X>X;X%X(.D.D.D.L.L.F.F.F.L.L.F.F.F.A.A.L.F.F.A.F.D.^.R.&X,X:X>X>X:X*X.XN.9.4.P y - O X hXhXhXhX",
"hXhXhXhX+ O - y L 3.p.k.N.B.XXXXoXXXOX XT.^.~.D.P.P.P.P.P.I.P.P.P.P.I.P.P.I.P.P.I.~.Y.T.[.OXXXXXXXXXB.N.k.p.3.L s - O . hXhXhXhX",
"hXhXhXhXX O - y P 3.p.f.b.m.n.n.n.n.N.M.T.R.!.~.!.!.!.^.!.!.!.!.!.!.^.!.!.!.!.~.~.!.R.T.M.N.n.n.n.n.m.b.f.p.3.P s - O X hXhXhXhX",
"hXhXhXhX. O ; u o.4.p.f.x.v.v.v.v.v.b.M.r.R.^.~.`.`._._._._.`.`._._._._._._._.).^.!.R.r.M.b.v.v.v.v.v.x.f.a.4.o.s - @ X hXhXhXhX",
"hXhXhXhXX O ; u o.8.d.x.x.x.z.z.z.z.s.h.e.R.~.^.`.1X4X4X4X4X2X2X4X4X4X4X4X4X1X`.^.^.Y.e.h.s.l.c.z.x.x.x.f.s.6.o.u ; O X hXhXhXhX",
"hXhXhXhX. O ; u +.i.z.z.f.d.d.d.s.d.a.0.t.S.^.).1X6X6XtXtXrXtXrXrXrXtXdXtXtX6X1X).D.J.t.0.p.d.d.d.d.d.f.x.f.i.+.f ; O . hXhXhXhX",
"hXhXhXhXX O ; f &.i.c.z.z.k.p.p.p.p.0.7.t.S.D.'.4XdXiXiXiXiXiXiXiXiXiXiXiXiXrX4X`.D.S.e.7.0.p.p.p.p.d.k.c.c.i.&.f ; O . hXhXhXhX",
"hXhXhXhX. O ; f =.u.m.m.b.j.g.j.j.g.g.r.R.J.^.'.5X8XuXuXwXwXwXwXwXwXwXwXwXwX8X5X'.^.R.K.r.y.g.j.j.j.k.b.m.m.u.=.f ; O X hXhXhXhX",
"hXhXhXhXX $ ; m =. XoXOX.X}.{.{.{.[.|.|.(.(.(.@X=X,X:X>X:X:X:X:X>X:X:X>X>X>X,X=X&X'.(.(.|.|.{.{.{.{.}.OXoXoX X=.m 7 O . hXhXhXhX",
"hXhXhXhX  O , m H.&X:X>X>X-X-X-X-X-X-X7X5X6X5X=X*XOXXXXXXXXXXXXXXXXXXXXXB.XXOX*X=X5X6X5X7X7X-X;X-X-X-X>X>X:X&XH.m , O X hXhXhXhX",
"hXhXhXhX+ O , M G.3XqXwXuXpXqXqXqXqXqXyXdXyX8X,XoXB.n.n.n.n.n.n.n.m.n.n.n.n.B.OX,X8XyXyXpX9X9XqXqXqXpXuXwXwX3XG.M , O . hXhXhXhX",
"hXhXhXhX  O , M G.2X0XpXqXyX9X9X9X0XyXyXrX0X7X<XV.m.v.c.l.l.u.l.u.u.l.l.c.v.m.B.<X7X0XyXyX0X9X9X0X0XpXpXpX0X2XG.M , $ . hXhXhXhX",
"hXhXhXhX  O , M C.(.#X7X$X#X#X#X#X#X#X@X@X@X+X[.M.c.s.u.i.%.%.&.%.%.%.i.u.s.f.M.[.+X@X@X@X#X#X5X#X#X#X$X#X#X'.C.n , O . hXhXhXhX",
"hXhXhXhXX O > n _ J.T.W.W.E.E.W.E.E.Q.R.K.K.q.w.h.p.a.6.+.O.O.h h T O.+.8.a.d.9.w.q.K.K.R.Q.E.E.E.E.W.W.W.E.q._ n > O X hXhXhXhX",
"hXhXhXhXX O = e I #.2.<.<.<.<.<.<.<.,.,./ /  .2.5.0.6.@.O.g e j j s i O.@.6.0.5.,./ /  . .,.<.<.1.1.<.<.<.1./ I e = O X hXhXhXhX",
"hXhXhXhXo O * 4 t R ! [ { { { { { { } W D J F } >.5.>.@.Y d j 3 0 j d I @.>.5.>.Q R D H ` } { { | { [ [ } Q R V 1 * O o hXhXhXhX",
"hXhXhXhXhXO * < r V C J W W ' ` ` ' E D B B B R -.>.>.$.~ A a a p a V ~ $.>.>.-.R B N B H E ' ` ` E W W K C t r < * O hXhXhXhXhX",
"hXhXhXhXhXhXhX- < 1 6 t B D G H H G D B N 6 Z J Q -.>.-.! ~ K S C Y R ! -.>.-.Q J Z N Z B D G H E G D B t 6 1 < - hXhXhXhXhXhXhX",
"hXhXhXhXhXhXhXhX& * 5 6 N B D H H D J B Z q q A ~ [ -.| [ Q Q Q } ! } [ -.-.[ ~ A 6 q a B J D H H D B t 6 5 * & hXhXhXhXhXhXhXhX",
"hXhXhXhXhXhXhXhXo O & 4 6 B H H H H J Z a q q ( S ^ } [ } [ } [ } [ Q [ { } ^ U ( q q q Z J H H H D B t < & O o hXhXhXhXhXhXhXhX",
"hXhXhXhXhXhXhXhX. o @ < N F G ' ' E D S a q q ( S ~ ^ / ^ ^ / / ^ / ^ ^ ^ ^ ~ ( ( q q Z S D E ' ' G D t 2 % o . hXhXhXhXhXhXhXhX",
"hXhXhXhXhXhXhXhX. o # 3 N R ` | ] ] W J ( z l z x ( U U U U U U U U U U U U ( ( l l z ( S E ] ] ] ` W V < & o . hXhXhXhXhXhXhXhX",
"hXhXhXhXhXhXhXhXX O & 3 V W ] | { [ Q ~ ( z l l z x x x x x x x x x x x x x z z l l ( ( ~ Q ] { | ] R V 4 & O X hXhXhXhXhXhXhXhX",
"hXhXhXhXhXhXhXhXX O & 3 t K ! Q ! ! R Y ( l k k j k k k 0 k k k k k k k k k k k 0 k q ( Y R ! Q Q ! K t 3 # O X hXhXhXhXhXhXhXhX",
"hXhXhXhXhXhXhXhXo O # 5 p i V C C C V a p 0 7 9 9 7 7 7 7 7 7 7 7 7 7 7 7 7 7 7 8 7 0 q d V C C K V t p 5 # O o hXhXhXhXhXhXhXhX",
"hXhXhXhXhXhXhXhXo O @ & 2 3 4 p 4 e 4 2 7 5 : : : > : > > > : > : : : : > > : > > > > 2 3 4 e 1 p 4 3 5 * @ O o hXhXhXhXhXhXhXhX",
"hXhXhXhXhXhXhXhXo O O @ $ & * * = > * & % $ $ $ $ $ $ $ $ $ $ $ $ $ $ $ $ $ $ $ $ $ % % : = * = * = % % @ O O o hXhXhXhXhXhXhXhX",
"hXhXhXhXhXhXhXhXO o O O O O O O O O O $ O O O O O O O O O O O O O O O O O O O O o O O O O O O O O O @ O O o O o hXhXhXhXhXhXhXhX",
"hXhXhXhXhXhXhXhXhXO o o o X X X X X X o X o o o o X o o o X o o o o o o X o o o o o o o . X X X X X X o o o O hXhXhXhXhXhXhXhXhX",
"hXhXhXhXhXhXhXhXhXhXhXhXhXhXhXhXhXhXhXhXhXhXhXhXhXhXhXhXhXhXhXhXhXhXhXhXhXhXhXhXhXhXhXhXhXhXhXhXhXhXhXhXhXhXhXhXhXhXhXhXhXhXhXhX",
"hXhXhXhXhXhXhXhXhXhXhXhXhXhXhXhXhXhXhXhXhXhXhXhXhXhXhXhXhXhXhXhXhXhXhXhXhXhXhXhXhXhXhXhXhXhXhXhXhXhXhXhXhXhXhXhXhXhXhXhXhXhXhXhX",
"hXhXhXhXhXhXhXhXhXhXhXhXhXhXhXhXhXhXhXhXhXhXhXhXhXhXhXhXhXhXhXhXhXhXhXhXhXhXhXhXhXhXhXhXhXhXhXhXhXhXhXhXhXhXhXhXhXhXhXhXhXhXhXhX",
"hXhXhXhXhXhXhXhXhXhXhXhXhXhXhXhXhXhXhXhXhXhXhXhXhXhXhXhXhXhXhXhXhXhXhXhXhXhXhXhXhXhXhXhXhXhXhXhXhXhXhXhXhXhXhXhXhXhXhXhXhXhXhXhX"
};
