/* XPM */
static char *result[] = {
/* columns rows colors chars-per-pixel */
"64 64 202 2 ",
"   c #7D5B44",
".  c #76624E",
"X  c #7B654F",
"o  c #7D6650",
"O  c #7A6A54",
"+  c #796D59",
"@  c #6F6756",
"#  c #5C766E",
"$  c #4C7E7E",
"%  c #577C76",
"&  c #626E63",
"*  c #6A6F62",
"=  c #647166",
"-  c #647469",
";  c #6A7365",
":  c #747B6A",
">  c #7A7F6B",
",  c #757764",
"<  c #85593F",
"1  c #86583D",
"2  c #935F3F",
"3  c #845C43",
"4  c #8D5F42",
"5  c #915F40",
"6  c #8B6145",
"7  c #8B684C",
"8  c #936545",
"9  c #996644",
"0  c #92694B",
"q  c #9C6D4A",
"w  c #976848",
"e  c #9D714F",
"r  c #9D7451",
"t  c #9A7A59",
"y  c #947456",
"u  c #8D6F53",
"i  c #A26F4A",
"p  c #A06A46",
"a  c #A4724D",
"s  c #AA764E",
"d  c #AD794F",
"f  c #B1784D",
"g  c #A67651",
"h  c #A97750",
"j  c #AB7B52",
"k  c #A27953",
"l  c #B27E53",
"z  c #4E807F",
"x  c #50817F",
"c  c #7B806D",
"v  c #6D8675",
"b  c #6E8877",
"n  c #67877A",
"m  c #728473",
"M  c #748C79",
"N  c #7F927C",
"B  c #AE8156",
"V  c #AF8058",
"C  c #B58255",
"Z  c #B88457",
"A  c #B48559",
"S  c #B98659",
"D  c #B5895C",
"F  c #BB8B5C",
"G  c #BF915F",
"H  c #83957C",
"J  c #89997D",
"K  c #999B78",
"L  c #83816A",
"P  c #B48D60",
"I  c #BD8E61",
"U  c #B69262",
"Y  c #BD9363",
"T  c #BC9A69",
"R  c #AE966B",
"E  c #BEA06C",
"W  c #A6A179",
"Q  c #C08E60",
"!  c #C29464",
"~  c #C39966",
"^  c #C39668",
"/  c #C39B6A",
"(  c #C99D6E",
")  c #C4A26D",
"_  c #CAA06F",
"`  c #C6A671",
"'  c #CDA472",
"]  c #C7A973",
"[  c #CAAC76",
"{  c #CBAE78",
"}  c #D0A675",
"|  c #D0A876",
" . c #CAB277",
".. c #CBB47B",
"X. c #CDBA7E",
"o. c #D2B77C",
"O. c #D2B97F",
"+. c #C1BD6B",
"@. c #B7CF5E",
"#. c #B8C55E",
"$. c #AFD351",
"%. c #B1D354",
"&. c #B6D35A",
"*. c #BAD45D",
"=. c #BBC964",
"-. c #BED462",
";. c #BDD46B",
":. c #C2C76E",
">. c #C2D565",
",. c #C5D56A",
"<. c #CAD66D",
"1. c #C5C472",
"2. c #C6CB73",
"3. c #CBCC76",
"4. c #CECB7B",
"5. c #CBC27A",
"6. c #D0C97E",
"7. c #CCD673",
"8. c #CCD57A",
"9. c #C7D679",
"0. c #D1D67D",
"q. c #D0D879",
"w. c #3E9197",
"e. c #3B949B",
"r. c #36949D",
"t. c #3497A1",
"y. c #359BA5",
"u. c #399FA7",
"i. c #359FA8",
"p. c #39A0A7",
"a. c #37A2AA",
"s. c #3BA4AA",
"d. c #3CA8AE",
"f. c #3BADB3",
"g. c #36AAB2",
"h. c #3DB1B5",
"j. c #3AB3B9",
"k. c #3DB9BD",
"l. c #37B4BB",
"z. c #4B8282",
"x. c #4C8887",
"c. c #498C8D",
"v. c #428A8D",
"b. c #5B8983",
"n. c #558884",
"m. c #56958E",
"M. c #469798",
"N. c #668E80",
"B. c #5AA49B",
"V. c #6CAF9F",
"C. c #69A799",
"Z. c #75AC99",
"A. c #6CB09F",
"S. c #42ACAF",
"D. c #4CA3A0",
"F. c #55AAA4",
"G. c #58B5AD",
"H. c #44AEB0",
"J. c #46B2B3",
"K. c #4AB6B5",
"L. c #4CB9B7",
"P. c #40B6B9",
"I. c #42BBBC",
"U. c #4EBCB9",
"Y. c #4BB0AE",
"T. c #67AEA0",
"R. c #6CB1A0",
"E. c #66B3A5",
"W. c #72B5A2",
"Q. c #52C2BC",
"!. c #4BC2BF",
"~. c #42BEC0",
"^. c #3EC1C3",
"/. c #44C4C4",
"(. c #47CBC9",
"). c #48CBC9",
"_. c #47C7C6",
"`. c #51CCC6",
"'. c #8F9F81",
"]. c #8EA386",
"[. c #CFBD81",
"{. c #D1BE81",
"}. c #CFC182",
"|. c #CFC88B",
" X c #D2C484",
".X c #D4CA86",
"XX c #D0C68C",
"oX c #D5CC8A",
"OX c #D8CF8B",
"+X c #C7D681",
"@X c #CED582",
"#X c #CFD68C",
"$X c #D3D484",
"%X c #D4D58B",
"&X c #D9D48D",
"*X c #D5D987",
"=X c #D2CD92",
"-X c #D4D493",
";X c #D9D692",
":X c #D4D69A",
">X c #D6D89B",
",X c #DAD994",
/* pixels */
"U.U.U.U.U.U.U.U.U.U.U.U.U.U.U.U.U.U.U.U.U.U.U.U.U.U.U.U.U.U.U.U.U.U.U.U.U.U.U.U.U.U.U.U.U.U.U.U.U.U.U.U.U.U.U.U.U.U.U.U.U.U.U.U.",
"U.U.U.U.U.U.U.U.U.U.U.U.U.U.U.U.U.U.U.U.U.U.U.U.U.U.U.U.U.U.U.U.U.U.U.U.U.U.U.U.U.U.U.U.U.U.U.U.U.U.U.U.U.U.U.U.U.U.U.U.U.U.U.U.",
"U.U.U.U.U.U.U.U.U.U.U.U.U.U.U.U.U.U.U.U.U.U.U.U.U.U.U.U.U.U.U.U.U.U.U.U.U.U.U.U.U.U.U.U.U.U.U.U.U.U.U.U.U.U.U.U.U.U.U.U.U.U.U.U.",
"U.U.U.U.U.U.U.U.U.U.U.U.U.U.U.U.U.U.U.U.U.U.U.U.U.U.U.U.U.U.U.U.U.U.U.U.U.U.U.U.U.U.U.U.U.U.U.U.U.U.U.U.U.U.U.U.U.U.U.U.U.U.U.U.",
"U.U.U.U.U.U.U.U.U.U.U.U.U.U.U.U.U.U.U.U.U.U.U.U.U.U.U.U.U.U.U.U.U.U.U.U.U.U.U.U.U.U.U.U.U.U.U.U.U.U.U.U.U.U.U.U.U.U.U.U.U.U.U.U.",
"U.U.U.U.U.U.U.U.U.U.U.U.U.U.U.U.U.U.U.U.U.U.U.U.U.U.U.U.U.U.U.U.U.U.U.U.U.U.U.U.U.U.U.U.U.U.U.U.U.U.U.U.U.U.U.U.U.U.U.U.U.U.U.U.",
"U.U.U.U.U.U.U.U.U.U.U.U.U.U.U.U.U.U.U.U.L.J.H.H.H.H.K.U.U.U.U.U.U.U.K.H.H.H.H.H.H.H.J.K.U.U.U.U.U.U.U.U.U.U.U.U.U.L.U.U.U.U.U.U.",
"U.U.U.U.U.U.U.U.U.U.U.U.U.U.L.K.L.K.K.K.H.s.a.s.a.a.f.K.K.K.U.K.L.L.H.a.a.a.s.s.a.a.s.f.K.L.L.L.U.U.U.U.U.U.U.U.U.U.U.U.U.U.U.U.",
"U.U.U.U.U.U.U.U.U.U.U.U.U.J.S.u.a.u.u.u.y.k.).).).).I.p.u.p.u.p.i.i.f.).).).).(.(.).I.y.p.d.J.H.S.K.U.U.U.L.U.U.U.U.U.U.U.U.U.U.",
"U.U.U.U.U.U.U.U.U.U.L.J.s.u.g.^.^.^.^.^.^.Z.J '.J J C.^.^.^.^././.^.G.].K J ].H H H C.!.^././.(.).S.S.J.U.Q.U.U.U.U.U.U.U.U.U.U.",
"U.U.U.U.U.U.U.U.K.J.S.s.f.j.Y.A.R.R.R.R.W.W ~ ) _ G K A.T.R.V.B.B.C.].~ ~ _ ^ U U F K A.A.A.V.E.I.k.h.I.J.J.L.L.U.U.U.U.U.U.U.U.",
"U.U.U.U.U.U.U.K.S.s.a.d._.`.Z.j j B D I I [ oX:X:XoXE B B B r 7 u r T  X&X-X:X:X:XoX .F B B h t m.Y.`._.g.s.S.d.L.L.U.U.U.U.U.U.",
"U.U.U.U.U.U.K.S.u.P.)._.d.N T ....5..X.X|.-X:X>X:X-X.X.X XX.X.[.}.X.[.&X&X&X;X:X:X:X-X.X XX.) l t t M d./.h.y.p.S.H.J.U.U.U.U.U.",
"U.U.U.U.J.H.S.a.P.k.j.S.m R ..%XoX9.>.,.0.@X%X:X$Xq.*X&X&X0.q.q.,.-.2.XX.X2.;.;.;.9.0.0.&X&X X` Y l y c v F.^.I.s.u.s.K.L.U.U.U.",
"U.U.U.J.H.S.s.P./.g.w.n k ) oX&Xq.-.$.%.-.,.7.@X>.>.,.7.0.q.<.,.%.$.=.2.1.@.$.$.$.>.<.<.0.;X&XXX}.T D C 8 M G.I.h.a.y.s.K.L.U.U.",
"U.U.K.H.S.a.h./.a.r.n j S ` .X$X&.%.%.%.%.-.<.,.&.%.%.&.,.<.<.,.%.$.$.%.%.%.%.%.&.>.<.<.<.*X>X:X-X.XX.) g 2 # a._.h.u.u.d.L.U.U.",
"U.U.K.S.u.P.~.a.y.# 7 S / ' o.$X&.$.%.%.%.&.&.%.%.%.%.%.%.&.&.%.%.%.%.%.%.%.$.&.,.7.>.*.<.#X:X:X&X.XX.` j 4 & y.a.~.k.u.s.K.U.U.",
"U.U.J.S.t./._.e.- u C ( ' o.oX%X,.,.*.%.%.%.%.%.%.%.%.%.%.%.%.$.%.%.%.%.%.%.%.&.<.7.>.%.<.8.9.9.%X[ / ` j 4 = y.y.~./.y.S.K.U.U.",
"U.L.J.S.h.P.j.w.. a ! [ / {.:X:X8.7.>.%.%.%.%.%.%.%.%.%.%.%.%.%.%.%.%.%.%.%.%.%.-.>.-.%.-.>.&.&.$X` Y T P q + z.y./.~.u.S.J.L.U.",
"U.J.s.a.).f.t.c.o a Y ` S [.>X%X7.<.-.%.%.%.%.%.%.%.%.%.%.%.%.%.%.%.%.%.%.%.%.%.%.%.%.%.%.$.$.&.$X{.) G ] P q o c.I./.y.S.S.J.U.",
"U.J.s.a.).j.z.o j C S S S  .*X7.<.*.%.%.%.%.%.%.%.%.%.%.%.%.%.%.%.%.%.%.%.%.%.%.%.%.%.%.%.%.$.-.$X.X..` [ ` I q X F./.u.S.S.J.U.",
"U.J.s.a.).j.b.q C Y Y C ! o.0.<.<.*.$.%.%.%.%.%.%.%.%.%.%.%.%.%.%.%.%.%.%.%.%.%.%.%.%.%.%.%.%.&.7..XXX .~ ! S i 3 n.k.P.a.s.J.U.",
"U.J.s.a.(.l.b.s C ) ` ! [ o.X.3.3.,.&.%.%.%.%.%.%.%.%.%.%.%.%.%.%.%.%.%.%.%.%.%.%.%.%.%.%.%.$.$.<.*X&XX.C l C a 6 $ j.(.u.S.J.K.",
"U.J.s.a.(.f.b.a l ^ [ ..[.| { }.}.3.>.%.%.%.%.%.%.%.%.%.%.%.%.%.%.%.%.%.%.%.%.%.%.%.%.%.%.%.%.-.7.#X=X..B j C l 6 z j.(.p.s.S.S.",
"U.J.s.a.(.l.z 6 e C ) .X X .{ }.7.7.>.%.%.%.%.%.%.%.%.%.%.%.%.%.%.%.%.%.%.%.%.%.%.%.%.%.%.%.;.-X:X:X=XX.F s j l a b.j.(.p.s.H.S.",
"J.Y.s.u.(.l.z 3 q f ) &XOXX.X..X7.<.<.>.%.%.%.%.%.%.%.%.%.%.%.%.%.%.%.%.%.%.%.$.%.%.%.%.%.$.;.:X:X:X=X[.) C a j a b.l.).a.s.H.S.",
"S.S.s.h.I.B.: 8 a D ] $X&XX.X.&X7.<.<.>.%.%.%.%.%.%.%.%.%.%.%.%.%.%.%.%.%.%.%.%.%.%.%.%.%.%.-.&X:X:XoX[.{ D s s a c F.).a.s.d.H.",
"S.a.h.).s.: a h S (  .{..X[.{.%X<.<.*.%.%.%.%.%.%.%.%.%.%.%.%.%.%.%.%.%.%.%.%.%.%.%.%.%.%.%.&.<.-X&XoX{.' F Z C g i H ).a.s.H.S.",
"S.u.h.).a.= 9 D  ...[ [ {.oX-X$X-.&.%.%.%.%.%.%.%.%.%.%.%.%.%.%.%.%.%.%.%.%.%.%.%.%.%.%.%.%.%.*.$X&XoXX.G Z Z C C 9 b (.a.s.S.S.",
"S.u.f.).a.& 8 F X.[.` ! [.-X:X#X&.$.%.%.%.%.%.%.%.%.%.%.%.%.%.%.%.%.%.%.%.%.%.%.%.%.%.%.%.*.*.&.$X X[ Y Z C l f C 9 - h.!.h.S.S.",
"S.u.f.).a.& 0 ^ X. X` F { =X:X-X-.&.%.%.%.%.%.%.%.%.%.%.%.%.%.%.%.%.%.%.%.%.%.%.%.%.%.%.*.,.,.>.$X{.~ l C F D d j 8 & p.).P.d.S.",
"S.u.f._.s.; k { [.}.` S ` XX:X-X7.*.%.%.%.%.%.%.%.%.%.%.%.%.%.%.%.%.%.%.%.%.%.%.%.%.%.&.<.<.7.7.&X.X[ F F ~ ( S h 8 ; s.).h.p.S.",
"S.p.y.d./.H C {  .[.` Z D X.,X-X7.&.$.%.%.%.%.%.%.%.%.%.%.%.%.%.%.%.%.%.%.%.%.%.%.%.%.&.,.<.q.&X&X.X..` ( { {.{ F a : s.(.f.u.H.",
"S.d.p.a.).H l F Y [ ) A C [ 4.;.*.&.%.%.%.%.%.%.%.%.%.%.%.%.%.%.%.%.%.%.%.%.%.%.%.%.%.%.*.,.0.&X&XoXXXX.} [.{.' F f > s.(.f.u.H.",
"J.J.s.a.).H f l C Y Y S G ` X.@.%.%.%.%.%.%.%.%.%.%.%.%.%.%.%.%.%.%.%.%.%.%.$.%.%.%.%.%.%.*.,.8.&X&X.XX.^ [ [ ! Z f > s.).f.u.H.",
"L.J.s.p.).H f Z Z C C S ]  ...5.@.%.%.%.%.%.%.%.%.%.%.%.%.%.%.%.%.%.%.%.%.%.%.%.%.%.%.%.%.%.%.&.0.&X.X..j I ! Z Z s > s._.f.y.H.",
"U.J.s.a.(.H s Z A j j F ......}.&.%.%.%.%.%.%.%.%.%.%.%.%.%.%.%.%.%.%.%.%.%.%.%.%.%.%.%.%.%.%.%.&.2. X..j g l C Z w v /.g.y.a.H.",
"U.J.s.s._.F.c d 9 a S ) {.{ [ 5.&.$.%.%.%.%.%.%.%.%.%.%.%.%.%.%.%.%.%.%.%.%.%.%.%.%.%.%.%.-.>.-.&.:..XX.A l l h w ; D.).u.t.u.f.",
"U.J.s.a.).j.c.>   i ~ ..[.....3.%.%.%.%.%.%.%.%.%.%.%.%.%.%.%.%.%.%.%.%.%.%.%.%.%.%.%.%.%.>.8.8.-.2.OXOX~ S j 0 * M.k.I.u.u.s.J.",
"U.J.s.a.(.j.y.w.O s ) }.[.[.4.,.-.%.%.%.%.%.%.%.%.%.%.%.%.%.%.%.%.%.%.%.%.%.%.%.%.%.%.%.%.>.@X-X7.$X&X X} Q i . w./.~.y.y.s.J.U.",
"U.J.s.a.).h.y.M.y T  .[.[.[.5.7.#X;.%.%.%.%.%.%.%.%.%.%.%.%.%.%.%.%.%.%.%.%.%.%.%.%.%.%.%.9.:X:X-X;Xo.! ( Q a . w././.y.y.s.K.U.",
"J.H.s.p.).h.c.> j ) [.[.X.XX-X-X:X9.*.%.%.%.%.%.%.%.%.%.%.%.$.%.%.%.%.%.%.%.%.%.%.%.$.%.%.+X:X:XoX&X .l Q ^ P e ; M.P.P.i.s.J.U.",
"S.S.s.h.~.g.b.q l ] }...[ XX>X:X:X8.>.%.%.%.%.%.%.%.%.%.*.*.&.%.$.%.%.%.%.%.&.*.*.*.&.%.%.9.-XoX}.oX{.! Z ^ _ F 4 $ j.).a.s.J.U.",
"S.s.f.).a.e.% 6 A ] [.[ { XX:X:X:X@X>.%.%.%.%.%.%.%.%.&.,.7.,.&.&.%.%.%.%.%.*.<.<.<.>.&.%.>.4.{.}.oXoX..F ^ } ^ 7 % s._.g.s.J.U.",
"H.u.h.).a.m r g ^ |  .{ [.[..X&X>X0.;.%.%.%.%.%.%.%.*.<.7.7.<.,.,.*.$.$.%.-.<.7.7.<.<.>.&.:.X...oX&XOX..j ! } ( g 7 # d._.!.K.S.",
"H.u.h.(.a.L s C ( [ ` ~  X%X.X.X-X%X4.+.+.2.8.8.+X8.8.$X4.@X%X-X%X;.$.@.2.4.$X#X*X*X6.5.8.$X.X X.X%X&X XF l I _ j 5 & u.).I.S.S.",
"H.y.h.(.u.: s ! ' [ ~ S .X;X X[ .X.X X[.{  .[.:X>X>X;X&X{.=X:X:X=X2.#.=.|.-X-X:X=X[.[  .{.oX;X$X[ 5.&X XF a j I g 5 & a.).f.y.S.",
"H.u.h.(.u.& a ^ ( ' ( !  X$X[ Y .. X[.{ ] I Y [.=X-XoXXX{.XX:X=X[. .] ..|.=X=X=X{ I Y ] {  X&X.XF ) .. .Y j A A a 7 # a.).H.u.S.",
"S.u.f.).s.> w 0 A  ..X.. .U A ' X.}.[.] I C Y  .....` Y ' [ .... .[ [ _ Y F T [ F C Q } [ X.|.X.F j C Y ` { { ^ 7 % r.s.(.f.u.H.",
"S.s.d.h.I.m 5 q ! {.&XoXX.D l | [.[.[. .F l S Y ` ^ ! / _ } ' { X.o.X. .S T [ ` F C Q } X.[.[...F h a B  . X[.( e @ m.P.h.i.u.H.",
"J.H.s.u.).M 9 l _ {.OX&X.XU j ^ ..[.X.) S l F / { ` Y ! ^ _ [ X.[.}.X.] F ] }. .A l F ^ ` X.[. .A a a j ..[.[ ! l 5 m ).i.y.s.H.",
"U.J.s.s._.H s F ( o. XOXoXU a j ) [ ^ C Z S / X.[.{.E s l / ..{.[.[.) C A ` }.] j l A C C ^ ] ` B a a j  .../ Z Z 8 v ).s.u.H.H.",
"U.J.s.i.).b 9 S ( [  . ...D g C S S C g A ^ [ ..[.X./ l h ! ' ' ' ~ l g C ) ) S s j Z C j C S F ) D a j ` [ ^ Z C 9 v ).a.s.H.H.",
"U.J.s.s.).v 8 A Q _ [ [ P C l C Z l s a g ^ [ [  .{ / C s A Q I I S g 9 g F G C s q e h a s A ) [ ) D g F ! F Z S 9 v ).a.s.H.J.",
"U.J.s.i.).m.+ g l Q / U q g S C l g i q a A ( [ [ ( I l q g S Y Y S q 3 6 g C h q < 6 a q q A / ] { ^ j l C Z C a + m.).s.s.J.U.",
"U.J.s.s.).h.z.7 j l j q 3 a S C g i 0 3 q i l / ( I h q 4 k ! { { P q 3 6 8 a e 6 < 6 q 3 8 g S ( _ ! l a g l j 7 x.h./.a.s.J.U.",
"U.J.s.u.).f.t.c.7 3 3 3 3 g Z l s 8 3 3 3 3 7 j h g q 4 q U ] { { ] U i q 8 8 q 3   3 3 3 3 8 s S S C a 4 3 4 X c.k.I.a.y.s.J.U.",
"U.J.s.y.f.I./.I.x.z.- 3 8 a f h 8 1 @ z.$ z.= 2 5 5 3 3 a D ) {  ./ F l w 3 3 4 3 = z.%   1 1 8 s f i 6 < # $ x.P.k.d.y.a.S.J.U.",
"U.J.s.u.y.f.~.~.j.g.v.; > > y m * & $ y.j.k.D.v v v b m 0 p j P P k i q * = & = v D.l.H.x v v v > > : & & M.k.j./.d.t.a.S.J.K.U.",
"U.J.S.S.u.y.y.i._.h.i.u.a.a.i.g.a.a.a.d./.(.(.(.).).).U., O O O + O O , u.a.u.d./.).).).`.).)._.s.a.a.a.a.I.)._.a.t.a.H.S.K.U.U.",
"U.J.H.S.y.y.y.y.u.~.).).(.(.(.(.).(.)._.d.u.a.s.a.u.a.s.U.Q.Q.U.Q.Q.U.`._.).)._.g.u.s.a.a.a.i.d._.).).).(.h.a.a.t.s.S.S.L.U.U.U.",
"U.U.H.S.s.S.u.y.y.g.h.f.h.h.h.h.f.f.P.I.s.s.s.s.s.s.u.y.f.h.j.j.j.h.f.h.H.f.h.f.y.u.s.s.s.s.i.y.f.P.f.f.h.s.s.s.s.d.J.K.U.U.U.U.",
"U.U.L.J.J.H.s.u.u.u.u.u.u.u.u.u.u.u.a.H.J.J.J.J.J.H.H.i.u.u.u.y.u.u.u.u.u.y.u.u.u.s.H.J.J.H.S.u.u.u.u.u.p.S.J.J.J.J.K.U.U.U.U.U.",
"U.U.U.U.U.H.H.S.S.H.S.S.S.S.H.H.S.S.H.H.U.U.U.U.U.H.S.H.S.S.H.H.S.H.d.H.H.H.H.H.H.H.J.U.U.J.S.S.S.H.S.H.S.S.J.U.U.U.U.U.U.U.U.U."
};
