/* XPM */
static char *result[] = {
/* columns rows colors chars-per-pixel */
"64 64 217 2 ",
"   c #0E1114",
".  c #161616",
"X  c #181716",
"o  c #171819",
"O  c #1B1A1A",
"+  c #05090C",
"@  c #29231F",
"#  c #1D2626",
"$  c #252423",
"%  c #2A2621",
"&  c #2B2B2C",
"*  c #24292A",
"=  c #342A24",
"-  c #382F26",
";  c #3C342C",
":  c #3A3228",
">  c #2C3839",
",  c #333433",
"<  c #393633",
"1  c #3D3D3D",
"2  c #3A3936",
"3  c #2F302F",
"4  c #4B3D2D",
"5  c #443729",
"6  c #453B33",
"7  c #4B3E34",
"8  c #413F3C",
"9  c #423731",
"0  c #503F2B",
"q  c #4E402F",
"w  c #4C4235",
"e  c #43413D",
"r  c #4E4439",
"t  c #534534",
"y  c #594533",
"u  c #5B4B36",
"i  c #524539",
"p  c #5B463A",
"a  c #554A3B",
"s  c #5C4D3C",
"d  c #554837",
"f  c #5F503C",
"g  c #52422F",
"h  c #624E3C",
"j  c #63513C",
"k  c #6A5339",
"l  c #735A3B",
"z  c #775C3B",
"x  c #7D623F",
"c  c #1F3D41",
"v  c #294345",
"b  c #3F4143",
"n  c #3C4E51",
"m  c #2C727A",
"M  c #444545",
"N  c #4A4743",
"B  c #4B4B4B",
"V  c #4A4845",
"C  c #564D41",
"Z  c #584F44",
"A  c #5C5244",
"S  c #59534A",
"D  c #4E4F50",
"F  c #4B5553",
"G  c #525252",
"H  c #5A5651",
"J  c #5D5853",
"K  c #545A58",
"L  c #6C5441",
"P  c #6B5944",
"I  c #66594A",
"U  c #6C5D4B",
"Y  c #635646",
"T  c #745643",
"R  c #735C42",
"E  c #7C5B44",
"W  c #785744",
"Q  c #695F53",
"!  c #635B54",
"~  c #7B6242",
"^  c #7C6349",
"/  c #73624C",
"(  c #6B6155",
")  c #6A625A",
"_  c #726656",
"`  c #766959",
"'  c #5A6362",
"]  c #636364",
"[  c #6B6A6A",
"{  c #7C7C7D",
"}  c #87673F",
"|  c #815E45",
" . c #836443",
".. c #8B6A43",
"X. c #8A6449",
"o. c #856B4B",
"O. c #8C6A4D",
"+. c #856747",
"@. c #936C4D",
"#. c #9A6D4D",
"$. c #946E46",
"%. c #957145",
"&. c #997445",
"*. c #96734B",
"=. c #9B744C",
"-. c #9E794B",
";. c #956E51",
":. c #8D7354",
">. c #927554",
",. c #9E7B51",
"<. c #9A7D5A",
"1. c #987656",
"2. c #8B704D",
"3. c #A47B4C",
"4. c #AC7E4D",
"5. c #A67748",
"6. c #A37552",
"7. c #A37D52",
"8. c #AB7C54",
"9. c #A57B5B",
"0. c #A87D5C",
"q. c #8A7A68",
"w. c #9D7A64",
"e. c #997B6B",
"r. c #876F60",
"t. c #A27D65",
"y. c #AE804E",
"u. c #B4844D",
"i. c #A58155",
"p. c #AB8455",
"a. c #AD865A",
"s. c #AA8559",
"d. c #BC8C53",
"f. c #B5855B",
"g. c #B88758",
"h. c #B48C5D",
"j. c #BB8B5D",
"k. c #B18156",
"l. c #BC905C",
"z. c #9A8466",
"x. c #8F857B",
"c. c #AB8E6A",
"v. c #A58A6A",
"b. c #BC9261",
"n. c #B9956C",
"m. c #B89673",
"M. c #A99172",
"N. c #C18F5E",
"B. c #C29255",
"V. c #C2915C",
"C. c #CD9A5C",
"Z. c #C9965B",
"A. c #D19E5E",
"S. c #D6A15F",
"D. c #C39261",
"F. c #CC9A64",
"G. c #C69A69",
"H. c #D19E66",
"J. c #D29F68",
"K. c #C39C74",
"L. c #CAA26E",
"P. c #D9A565",
"I. c #D5A168",
"U. c #DDA96C",
"Y. c #D7A367",
"T. c #CBA373",
"R. c #CEA879",
"E. c #D1AC7D",
"W. c #E0AB6D",
"Q. c #2E97A2",
"!. c #339AA4",
"~. c #3E9FAA",
"^. c #379CA6",
"/. c #3FA1AB",
"(. c #598E93",
"). c #5AADB5",
"_. c #5DAFB9",
"`. c #50A9B2",
"'. c #6FB6BE",
"]. c #649293",
"[. c #70B9C3",
"{. c #828282",
"}. c #8B8B8B",
"|. c #888787",
" X c #96928D",
".X c #959291",
"XX c #998E80",
"oX c #A2988B",
"OX c #B49D88",
"+X c #A99D96",
"@X c #BDA384",
"#X c #ACA295",
"$X c #B4A89B",
"%X c #88BDBE",
"&X c #8FA6A8",
"*X c #A4A5A5",
"=X c #AEABA6",
"-X c #ADAEAE",
";X c #A7A8A8",
":X c #B8ADA0",
">X c #B3B3B4",
",X c #B7B8B8",
"<X c #AFB5AD",
"1X c #CCB797",
"2X c #C2A685",
"3X c #CCBAA2",
"4X c #BECABF",
"5X c #D7C09F",
"6X c #D8C2A5",
"7X c #8DC0C2",
"8X c #95C6C9",
"9X c #9ECCD1",
"0X c #B8D7D9",
"qX c #C3CDC2",
"wX c #C6D0C6",
"eX c #E8DBCB",
"rX c None",
/* pixels */
"rXrXrXrXrXrXrXrXrXrXrXrXrXrXrXrXrXrXrXrXrXrXrXrXrXrXrXrXrXrXrXrXrXrXrXrXrXrXrXrXrXrXrXrXrXrXrXrXrXrXrXrXrXrXrXrXrXrXrXrXrXrXrXrX",
"rXrXrXrXrXrXrXrXrXrXrXrXrXrXrXrXrXrXrXrXrXrXrXrXrXrXrXrXrXrXrXrXrXrXrXrXrXrXrXrXrXrXrXrXrXrXrXrXrXrXrXrXrXrXrXrXrXrXrXrXrXrXrXrX",
"rXrXrXrXrXrXrXrXrXrXrXrXrXrXrXrXrXrXrXrXrXrXrXrXrXrXrXrXrXrXrXrXrXrXrXrXrXrXrXrXrXrXrXrXrXrXrXrXrXrXrXrXrXrXrXrXrXrXrXrXrXrXrXrX",
"rXrXrXrXrXrXrXrXrXrXrXrXrXrXrXrXrXrXrXrXrXrXrXrXrXrXrXrXrXrXrXrXrXrXrXrXrXrXrXrXrXrXrXrXrXrXrXrXrXrXrXrXrXrXrXrXrXrXrXrXrXrXrXrX",
"rXrXrXrXrXrXrXrXrXrXrXrXrXrXrXrXrXrXrXrXrXrXrXrXrXrXrXrX. . . . rXrXrXrXrXrXrXrXrXrXrXrXrXrXrXrXrXrXrXrXrXrXrXrXrXrXrXrXrXrXrXrX",
"rXrXrXrXrXrXrXrXrXrXrXrXrXrXrXrXrXrXrXrXrXrXrXrXrXrXrXrX& & & * rXrXrXrXrXrXrXrXrXrXrXrXrXrXrXrXrXrXrXrXrXrXrXrXrXrXrXrXrXrXrXrX",
"rXrXrXrXrXrXrXrXrXrXrXrXrXrXrXrXrXrXrXrXrXrXrXrXrXrXO * 1 M M 1 % rXrXrXrXrXrXrXrXrXrXrXrXrXrXrXrXrXrXrXrXrXrXrXrXrXrXrXrXrXrXrX",
"rXrXrXrXrXrXrXrXrXrXrXrXrXrXrXrXrXrXrXrXrXrXrXrXrXrX* , B J G M * O rXrXrXrXrXrXrXrXrXrXrXrXrXrXrXrXrXrXrXrXrXrXrXrXrXrXrXrXrXrX",
"rXrXrXrXrXrXrXrXrXrXrXrXrXrXrXrXrXrXrXrXrXrXrXrXX & 1 B K K B 2 $ O rXrXrXrXrXrXrXrXrXrXrXrXrXrXrXrXrXrXrXrXrXrXrXrXrXrXrXrXrXrX",
"rXrXrXrXrXrXrXrXrXrXrXrXrXrXrXrXrXrXrXrXrXrXrXrX  * b G G J ! A = O   rXrXrXrXrXrXrXrXrXrXrXrXrXrXrXrXrXrXrXrXrXrXrXrXrXrXrXrXrX",
"rXrXrXrXrXrXrXrXrXrXrXrXrXrXrXrXrXrXrXrXrXrXX . O & B K B U 2.2.w % O O O O O o rXrXrXrXrXrXrXrXrXrXrXrXrXrXrXrXrXrXrXrXrXrXrXrX",
"rXrXrXrXrXrXrXrXrXrXrXrXrXrXrXrXrXrXrXrXrXrXO % ; s / ( e U i.p.s < ; 7 4 : % O rXrXrXrXrXrXrXrXrXrXrXrXrXrXrXrXrXrXrXrXrXrXrXrX",
"rXrXrXrXrXrXrXrXrXrXrXrXrXrXrXrXrXrXX X o o $ w O.h.l.i.a j *.i.i a +.a.a.o.w $ O . X . rXrXrXrXrXrXrXrXrXrXrXrXrXrXrXrXrXrXrXrX",
"rXrXrXrXrXrXrXrXrXrXrXrXrXrXrXrXrXrX5 - @ $ ; T h.U.Y.s.a f } &.t j i.P.P.h.T 9 % % = 5 rXrXrXrXrXrXrXrXrXrXrXrXrXrXrXrXrXrXrXrX",
"rXrXrXrXrXrXrXrXrXrXrXrXrXrXrXrX. 5 k l ; ; p O.l.P.C.-.t u } } t u =.C.P.l.*.s ; 6 k l : rXrXrXrXrXrXrXrXrXrXrXrXrXrXrXrXrXrXrX",
"rXrXrXrXrXrXrXrXrXrXrXrXrXrXrXrX. g } -.d r T 6.g.d.-.x q j %.&.w w l 3.d.g.=.W 6 s %.%.5 O rXrXrXrXrXrXrXrXrXrXrXrXrXrXrXrXrXrX",
"rXrXrXrXrXrXrXrXrXrXrXrXrXrXrXrX. y =.a.s w T #.6.X.k 6 3 u } &.w ; 6 j X.6.#.W 6 j -.i.4 O rXrXrXrXrXrXrXrXrXrXrXrXrXrXrXrXrXrX",
"rXrXrXrXrXrXrXrXrXrXrXrXrXrXrXrX. y ,.h.s r L X.E T L s j ~ &.y.~ j s j T E X.W 6 P s.a.0 O rXrXrXrXrXrXrXrXrXrXrXrXrXrXrXrXrXrX",
"rXrXrXrXrXrXrXrXrXrXrXrXrXrXrXrX. y ,.h.A 7 L | s h +.,.7.i.u.u.i.3.,.o.s h W W 6 P i.a.4 O rXrXrXrXrXrXrXrXrXrXrXrXrXrXrXrXrXrX",
"rXrXrXrXrXrXrXrXrXrXrXrXrXrXrXrX. d 7.h.h i T E 6 j ,.F.Z.V.d.d.V.C.Z.p.p i T ~ w P s.k.4 O rXrXrXrXrXrXrXrXrXrXrXrXrXrXrXrXrXrX",
"rXrXrXrXrXrXrXrXrXrXrXrXX X X X X d ,.h.s u  ...w j ,.Z.f.4.u.u.4.g.V.i.u u  ...w P i.a.7 O   . O . rXrXrXrXrXrXrXrXrXrXrXrXrXrX",
"rXrXrXrXrXrXrXrXrXrXrXrX. $ , M M _ M.v.C s } %.t j ,.V.6.=.6.5.#.8.d.i.a u ..%.w Y z.m.Q B b 2 $ O rXrXrXrXrXrXrXrXrXrXrXrXrXrX",
"rXrXrXrXrXrXrXrXrXrXrXrX. , K {.{..X#XXXZ j } &.t j 3.N.6.#.#.=.;.8.j.p.d h } &.t J x.#X X{.{ ] 3 O rXrXrXrXrXrXrXrXrXrXrXrXrXrX",
"rXrXrXrXrXrXrXrXrXrXrXrXX M {.>X>X,X-X.XJ T %.5.i j 7.H.8.8.6.6.6.g.Z.p.a j %.3.j ) }.>X>X,X>X|.8 O rXrXrXrXrXrXrXrXrXrXrXrXrXrX",
"rXrXrXrXrXrXrXrXrXrXrXrX. N {.>X>X,X<X+Xr.;.u.3.a j i.Y.C.B.B.V.N.F.Y.a.u j *.d.O.q. X>X>X,X-X}.M O rXrXrXrXrXrXrXrXrXrXrXrXrXrX",
"rXrXrXrXrXrXrXrXrXrXrXrX. b { *X;X=X$XOXw.;.*.^ w f i.P.C.C.C.C.C.S.A.p.a d / *.;.t.OX:X=X=X*X{.2 O rXrXrXrXrXrXrXrXrXrXrXrXrXrX",
"rXrXrXrXrXrXrXrXrXrXrXrX. 1 [ }..XoX@XK.9.X.k d < s *.B.B.B.B.B.B.Z.B.-.d 2 w T X.0.K.@XoX}.}.[ , O rXrXrXrXrXrXrXrXrXrXrXrXrXrX",
"rXrXrXrXrXrXrXrXrXrXrXrXX & D ] ] q.n.F.;.T j w 8 a +.i.i.i.i.3.3.i.3.o.a e r f L ,.D.G.q.[ ] D & O rXrXrXrXrXrXrXrXrXrXrXrXrXrX",
"rXrXrXrXrXrXrXrXrXrXrXrXX O * 3 , P s.b.P P 2.z.Q H Q _ _ _ _ _ _ _ ( ( H _ >.,.j ^ a.h.Y , & & O O rXrXrXrXrXrXrXrXrXrXrXrXrXrX",
"rXrXrXrXrXrXrXrXrXrXrXrXo O O o o u ,.h.s Y ,.h._ G F F G G G D G G H F D ` a.p.a P i.a.7 O . O O rXrXrXrXrXrXrXrXrXrXrXrXrXrXrX",
"rXrXrXrXrXrXrXrXrXrXrXrXrXrXrXrX. g -.h.s j %.p.U B b M M M M B M M M M B / ,.-.d P i.a.4 . + rXrXrXrXrXrXrXrXrXrXrXrXrXrXrXrXrX",
"rXrXrXrXrXrXrXrXrXrXrXrXrXrXrXrX. t 7.j.T j z ^ a e 1 1 1 N A S N 1 1 1 1 A ~ ~ p ~ a.k.4 O rXrXrXrXrXrXrXrXrXrXrXrXrXrXrXrXrXrX",
"rXrXrXrXrXrXrXrXrXrXrXrXo . . . . y 7.F.;.T p 7 8 b 1 1 b I >.<.A e 1 1 1 e w p T 1.N.k.q O   X o . rXrXrXrXrXrXrXrXrXrXrXrXrXrX",
"rXrXrXrXrXrXrXrXrXrXrXrX. $ , M M _ M.K.9.W 7 3 , , 2 1 1 U i.a.I 8 1 1 > 3 , 6 W 0.K.M.( V b 2 # . rXrXrXrXrXrXrXrXrXrXrXrXrXrX",
"rXrXrXrXrXrXrXrXrXrXrXrX. , ! {.{..X+XOXt.T 6 & , , 1 8 1 U ,.i.Y 8 1 1 2 3 & 6 W t.OX#X X|.{ ] , O rXrXrXrXrXrXrXrXrXrXrXrXrXrX",
"rXrXrXrXrXrXrXrXrXrXrXrXX M {.>X,X>X>X+Xw.T 7 , w C N M M I o.2.A B b V a w < 6 W e.+X>X>X,X-X}.1 O rXrXrXrXrXrXrXrXrXrXrXrXrXrX",
"rXrXrXrXrXrXrXrXrXrXrXrX. M {.>X>X,X-X+Xw.L 7 r >.>.` G G J Q Q H G G ( <.2.a 6 W e.+X>X>X,X-X}.8 O rXrXrXrXrXrXrXrXrXrXrXrXrXrX",
"rXrXrXrXrXrXrXrXrXrXrXrX. b { *X;X=X:XOXw.L 7 p p.s.` D F G G G G D G _ h.,.Y 6 W w.OX$X=X;X*X{.1 O rXrXrXrXrXrXrXrXrXrXrXrXrXrX",
"rXrXrXrXrXrXrXrXrXrXrXrX. 1 [ }. XoX@XK.9.l w d 3.7._ N M M M M M M B U p.%.h 6 W 9.K.2XoX.X|.[ , O rXrXrXrXrXrXrXrXrXrXrXrXrXrX",
"rXrXrXrXrXrXrXrXrXrXrXrXX 3 B ] ] q.n.H.8.| h h  .~ Z 1 1 1 b 8 1 1 8 C ~ x k s | 8.F.n.q.[ ] D & O rXrXrXrXrXrXrXrXrXrXrXrXrXrX",
"rXrXrXrXrXrXrXrXrXrXrXrXX O * 3 , P a.F.0.#.$. .j w e 1 1 8 1 1 1 1 1 e r j } $.@.8.F.h.Y , & & O O rXrXrXrXrXrXrXrXrXrXrXrXrXrX",
"rXrXrXrXrXrXrXrXrXrXrXrXo O O o O d i.I.j.8.4.&.R Z e 1 1 1 b 1 b 1 1 e s R $.4.8.N.F.h.t O . X O rXrXrXrXrXrXrXrXrXrXrXrXrXrXrX",
"rXrXrXrXrXrXrXrXrXrXrXrXrXrXrXrX. q 3.U.J.V.8.6.-.^ A e 8 1 8 8 1 1 e Z o.=.8.8.N.I.Y.s.4 . + rXrXrXrXrXrXrXrXrXrXrXrXrXrXrXrXrX",
"rXrXrXrXrXrXrXrXrXrXrXrXrXrXrXrX. 4 *.I.W.J.j.k.j.i.^ a M 1 1 1 1 e C ^ p.g.k.f.J.W.J.,.5 O rXrXrXrXrXrXrXrXrXrXrXrXrXrXrXrXrXrX",
"rXrXrXrXrXrXrXrXrXrXrXrXrXrXrXrXX ; W f.I.U.I.D.k.8.=.+.C 8 1 1 1 A +.-.6.a.D.J.W.I.f.| : O rXrXrXrXrXrXrXrXrXrXrXrXrXrXrXrXrXrX",
"rXrXrXrXrXrXrXrXrXrXrXrXrXrXrXrXX = p O.f.I.U.I.j.8.3.O.a e a A e s +.8.8.j.J.U.J.f.O.p % X rXrXrXrXrXrXrXrXrXrXrXrXrXrXrXrXrXrX",
"rXrXrXrXrXrXrXrXrXrXrXrXrXrXrXrX. $ 6 L ;.j.J.U.J.N.8.X.r a P ~ w i  .8.N.J.U.I.j.;.L 9 $ X rXrXrXrXrXrXrXrXrXrXrXrXrXrXrXrXrXrX",
"rXrXrXrXrXrXrXrXrXrXrXrXrXrXrXrX. @ 6 L X.8.N.I.U.J.h.X.6 a ~ +.w w E j.Y.U.Y.N.8.O.L 6 % . rXrXrXrXrXrXrXrXrXrXrXrXrXrXrXrXrXrX",
"rXrXrXrXrXrXrXrXrXrXrXrXrXrXrXrXX : l -.y.y.8.f.I.U.I.9.i M Z Y 2 s ,.J.W.J.j.7.y.u.&.l = O rXrXrXrXrXrXrXrXrXrXrXrXrXrXrXrXrXrX",
"rXrXrXrXrXrXrXrXrXrXrXrXrXrXrXrXc K z.T.d.5...O.f.I.U.b.2.I H J I :.D.U.J.a.O.+.y.l.L.x.F v rXrXrXrXrXrXrXrXrXrXrXrXrXrXrXrXrXrX",
"rXrXrXrXrXrXrXrXrXrXrXrXrXrXrXrXm ].<X6XL.-.l Y @.j.I.I.b.:.) ) >.b.J.J.j.O.P l &.T.6X4X(.m rXrXrXrXrXrXrXrXrXrXrXrXrXrXrXrXrXrX",
"rXrXrXrXrXrXrXrXrXrXrXrXrXrXrXrX^._.8XqX1Xc.^ k +.8.V.G.l.<.` ) <.b.G.N.8.X.k ~ c.1X6X9X)./.rXrXrXrXrXrXrXrXrXrXrXrXrXrXrXrXrXrX",
"rXrXrXrXrXrXrXrXrXrXrXrXrXrXrXrX!.`.`.%XqX1Xn.3.4.u.6.$.T A H H S T O.8.u.y.-.c.6X0X%X)./.^.rXrXrXrXrXrXrXrXrXrXrXrXrXrXrXrXrXrX",
"rXrXrXrXrXrXrXrXrXrXrXrXrXrXrXrX!.!.^.).8X0X1XT.d.u.5.| w 2 b M 2 t E 5.u.B.L.1X4X8X).!.^.rXrXrXrXrXrXrXrXrXrXrXrXrXrXrXrXrXrXrX",
"rXrXrXrXrXrXrXrXrXrXrXrXrXrXrXrXrXrX!.~._.7XqX6XL.d.u...7 , 1 M 3 t  .u.d.L.6X6X7X).`.Q.rXrXrXrXrXrXrXrXrXrXrXrXrXrXrXrXrXrXrXrX",
"rXrXrXrXrXrXrXrXrXrXrXrXrXrXrXrXrXrX!.!.!._.8XqX1XE.T.v.C 8 r C < A z.R.T.1X0X9X).!.Q.Q.rXrXrXrXrXrXrXrXrXrXrXrXrXrXrXrXrXrXrXrX",
"rXrXrXrXrXrXrXrXrXrXrXrXrXrXrXrXrXrXrXrX!./.).%XwXeXeX:XJ A o.>.i ) +XeXeX0X%X).~.!.rXrXrXrXrXrXrXrXrXrXrXrXrXrXrXrXrXrXrXrXrXrX",
"rXrXrXrXrXrXrXrXrXrXrXrXrXrXrXrXrXrXrXrX!.Q.^.).9X0X0X&XK P 7.h.Z ' &X0X0X8X).!.!.!.rXrXrXrXrXrXrXrXrXrXrXrXrXrXrXrXrXrXrXrXrXrX",
"rXrXrXrXrXrXrXrXrXrXrXrXrXrXrXrXrXrXrXrXrXrX!./._.[.[.(.n I 8.j.s F (.[.'.).~.Q.rXrXrXrXrXrXrXrXrXrXrXrXrXrXrXrXrXrXrXrXrXrXrXrX",
"rXrXrXrXrXrXrXrXrXrXrXrXrXrXrXrXrXrXrXrXrXrX!.!.Q./.!.m > s ;.8.i v m Q.^.!.!.!.rXrXrXrXrXrXrXrXrXrXrXrXrXrXrXrXrXrXrXrXrXrXrXrX",
"rXrXrXrXrXrXrXrXrXrXrXrXrXrXrXrXrXrXrXrXrXrXrXrXrXrXrXrX# 7 W | 5 & rXrXrXrXrXrXrXrXrXrXrXrXrXrXrXrXrXrXrXrXrXrXrXrXrXrXrXrXrXrX",
"rXrXrXrXrXrXrXrXrXrXrXrXrXrXrXrXrXrXrXrXrXrXrXrXrXrXrXrXX : 0 h = rXrXrXrXrXrXrXrXrXrXrXrXrXrXrXrXrXrXrXrXrXrXrXrXrXrXrXrXrXrXrX",
"rXrXrXrXrXrXrXrXrXrXrXrXrXrXrXrXrXrXrXrXrXrXrXrXrXrXrXrXrX% = = rXrXrXrXrXrXrXrXrXrXrXrXrXrXrXrXrXrXrXrXrXrXrXrXrXrXrXrXrXrXrXrX",
"rXrXrXrXrXrXrXrXrXrXrXrXrXrXrXrXrXrXrXrXrXrXrXrXrXrXrXrXrXrX. . rXrXrXrXrXrXrXrXrXrXrXrXrXrXrXrXrXrXrXrXrXrXrXrXrXrXrXrXrXrXrXrX"
};
