/* XPM */
static char *result[] = {
/* columns rows colors chars-per-pixel */
"64 64 207 2 ",
"   c #030509",
".  c #0F1113",
"X  c #161616",
"o  c #1A1A1A",
"O  c #171717",
"+  c #231F1D",
"@  c #25211D",
"#  c #1E383B",
"$  c #232323",
"%  c #2B2C2C",
"&  c #2A2824",
"*  c #322D29",
"=  c #3C3326",
"-  c #35322E",
";  c #3D342D",
":  c #2F3031",
">  c #213A3B",
",  c #343434",
"<  c #3B3532",
"1  c #3C3A37",
"2  c #3B3B3C",
"3  c #373839",
"4  c #2F2F30",
"5  c #413729",
"6  c #45392B",
"7  c #4A3C2B",
"8  c #403426",
"9  c #4A3E34",
"0  c #423B36",
"q  c #513F2B",
"w  c #3C463C",
"e  c #4F402F",
"r  c #52412E",
"t  c #58432E",
"y  c #4C4135",
"u  c #4A423C",
"i  c #534434",
"p  c #5C4A35",
"a  c #53463A",
"s  c #56493B",
"d  c #5B4D3C",
"f  c #5A4639",
"g  c #5F503E",
"h  c #644D3C",
"j  c #634E34",
"k  c #62523E",
"l  c #6B533E",
"z  c #6D583B",
"x  c #745D3E",
"c  c #785E3E",
"v  c #7B613F",
"b  c #3D3E40",
"n  c #3E4642",
"m  c #316466",
"M  c #2D767D",
"N  c #434344",
"B  c #474748",
"V  c #4C4C4C",
"C  c #4A4745",
"Z  c #554D45",
"A  c #5C554A",
"S  c #4F5152",
"D  c #545555",
"F  c #5B5A58",
"G  c #4E4F51",
"H  c #635545",
"J  c #6C5541",
"K  c #6D5944",
"L  c #695B4B",
"P  c #725B42",
"I  c #7B5C43",
"U  c #755946",
"Y  c #655C52",
"T  c #6A5F51",
"R  c #644F43",
"E  c #7B6244",
"W  c #79614B",
"Q  c #6C6255",
"!  c #65615B",
"~  c #726455",
"^  c #796C5B",
"/  c #75695B",
"(  c #556E70",
")  c #646464",
"_  c #6B6B6C",
"`  c #7C7C7C",
"'  c #815B3D",
"]  c #83653F",
"[  c #805E44",
"{  c #846344",
"}  c #8B6445",
"|  c #856946",
" . c #8C6B43",
".. c #84634A",
"X. c #8A664A",
"o. c #8C6A4B",
"O. c #866B4C",
"+. c #926B4C",
"@. c #9B6D4B",
"#. c #926F45",
"$. c #8F714C",
"%. c #957245",
"&. c #997344",
"*. c #95744C",
"=. c #9C734B",
"-. c #9E794B",
";. c #886E55",
":. c #8B755A",
">. c #8D7352",
",. c #937553",
"<. c #9C7A53",
"1. c #9A7E5D",
"2. c #977857",
"3. c #A2764D",
"4. c #A27B4B",
"5. c #AA7D4B",
"6. c #A37E53",
"7. c #AB7C54",
"8. c #A47653",
"9. c #887967",
"0. c #B3834E",
"q. c #BB8A4D",
"w. c #B7894F",
"e. c #A58154",
"r. c #AC8454",
"t. c #AC855A",
"y. c #AE885B",
"u. c #B28354",
"i. c #BD8D54",
"p. c #B48C5D",
"a. c #BB8D5B",
"s. c #B68858",
"d. c #BC905E",
"f. c #9C8263",
"g. c #91877D",
"h. c #A58465",
"j. c #A98B6A",
"k. c #B58E62",
"l. c #B18E6B",
"z. c #BE9463",
"x. c #B6946C",
"c. c #B69379",
"v. c #B89578",
"b. c #AF926E",
"n. c #C08D4D",
"m. c #C18F57",
"M. c #C69456",
"N. c #C5945C",
"B. c #C99658",
"V. c #CC9A5B",
"C. c #C99656",
"Z. c #D19C5B",
"A. c #D4A05F",
"S. c #C39563",
"D. c #CC9B63",
"F. c #C49967",
"G. c #D19E64",
"H. c #C39F79",
"J. c #C89E73",
"K. c #D6A264",
"L. c #D9A565",
"P. c #D9A669",
"I. c #CBA577",
"U. c #2C7980",
"Y. c #3B8C94",
"T. c #3399A3",
"R. c #399EA8",
"E. c #2E97A2",
"W. c #3FA0AA",
"Q. c #41A1AA",
"!. c #55A3AC",
"~. c #5AACB4",
"^. c #5EAFB9",
"/. c #6FB8C1",
"(. c #6EB7C0",
"). c #70B9C1",
"_. c #848484",
"`. c #8C8C8C",
"'. c #998E82",
"]. c #989592",
"[. c #A4988B",
"{. c #B79F88",
"}. c #BCA388",
"|. c #ACA296",
" X c #AEA398",
".X c #B2A79A",
"XX c #88A9AD",
"oX c #8ABEBE",
"OX c #A5A5A6",
"+X c #ACACAD",
"@X c #ADAAA6",
"#X c #B5AEA5",
"$X c #B3B3B3",
"%X c #B9B9B9",
"&X c #AFB0B0",
"*X c #C2A583",
"=X c #CDB796",
"-X c #95C6CA",
";X c #9ECCD1",
":X c #B7D5D7",
">X c #B9D6D8",
",X c #B7D5D8",
"<X c #C3CEC3",
"1X c #C7D0C6",
"2X c #E2D5CA",
"3X c #E6D9CA",
"4X c None",
/* pixels */
"4X4X4X4X4X4X4X4X4X4X4X4X4X4X4X4X4X4X4X4X4X4X4X4X4X4X4X4X4X4X4X4X4X4X4X4X4X4X4X4X4X4X4X4X4X4X4X4X4X4X4X4X4X4X4X4X4X4X4X4X4X4X4X4X",
"4X4X4X4X4X4X4X4X4X4X4X4X4X4X4X4X4X4X4X4X4X4X4X4X4X4X4X4X4X4X4X4X4X4X4X4X4X4X4X4X4X4X4X4X4X4X4X4X4X4X4X4X4X4X4X4X4X4X4X4X4X4X4X4X",
"4X4X4X4X4X4X4X4X4X4X4X4X4X4X4X4X4X4X4X4X4X4X4X4X4X4X4X4X4X4X4X4Xo 4X4X4X4X4X4X4X4X4X4X4X4X4X4X4X4X4X4X4X4X4X4X4X4X4X4X4X4X4X4X4X",
"4X4X4X4X4X4X4X4X4X4X4X4X4X4X4X4X4X4X4X4X4X4X4X4X4X4X4X4X4X4X4X4X6 6 4X4X4X4X4X4X4X4X4X4X4X4X4X4X4X4X4X4X4X4X4X4X4X4X4X4X4X4X4X4X",
"4X4X4X4X4X4X4X4X4X4X4X4X4X4X4X4X4X4X4X4X4X4X4X4X4X4X4X4X4X4Xo 6  .c 7 X 4X4X4X4X4X4X4X4X4X4X4X4X4X4X4X4X4X4X4X4X4X4X4X4X4X4X4X4X",
"4X4X4X4X4X4X4X4X4X4X4X4X4X4X4X4X4X4X4X4X4X4X4X4X4X4X4X4X4X4Xo = x z 8 X 4X4X4X4X4X4X4X4X4X4X4X4X4X4X4X4X4X4X4X4X4X4X4X4X4X4X4X4X",
"4X4X4X4X4X4X4X4X4X4X4X4X4X4X4X4X4X4X4X4X4X4X4X4X4X4X4X4X4X4Xo @ 6 8 & X 4X4X4X4X4X4X4X4X4X4X4X4X4X4X4X4X4X4X4X4X4X4X4X4X4X4X4X4X",
"4X4X4X4X4X4X4X4X4X4X4X4X4X4X4X4X4X4X4X4X4X4X4X4X4X4X4X4X4X4XO o $ & % & 4X4X4X4X4X4X4X4X4X4X4X4X4X4X4X4X4X4X4X4X4X4X4X4X4X4X4X4X",
"4X4X4X4X4X4X4X4X4X4X4X4X4X4X4X4X4X4X4X4X4X4X4X4X4X4X4X4X4X4Xo $ 2 B B w $ o 4X4X4X4X4X4X4X4X4X4X4X4X4X4X4X4X4X4X4X4X4X4X4X4X4X4X",
"4X4X4X4X4X4X4X4X4X4X4X4X4X4X4X4X4X4X4X4X4X4X4X4X4X4X4X4X4X4XO $ 2 S D V 3 & 4X4X4X4X4X4X4X4X4X4X4X4X4X4X4X4X4X4X4X4X4X4X4X4X4X4X",
"4X4X4X4X4X4X4X4X4X4X4X4X4X4X4X4X4X4X4X4X4X4X4X4X4X4X4X4X4X4XO $ 2 G F D V 3 $ X 4X4X4X4X4X4X4X4X4X4X4X4X4X4X4X4X4X4X4X4X4X4X4X4X",
"4X4X4X4X4X4X4X4X4X4X4X4X4X4X4X4X4X4X4X4X4X4X4X4X4X4X4X4X4X4Xo & s H F D F N % O 4X4X4X4X4X4X4X4X4X4X4X4X4X4X4X4X4X4X4X4X4X4X4X4X",
"4X4X4X4X4X4X4X4X4X4X4X4X4X4X4X4X4X4X4X4X4X4X4X4X4X4X4X4XO X o 5 >.,.Q V D N % O 4X4X4X4X4X4X4X4X4X4X4X4X4X4X4X4X4X4X4X4X4X4X4X4X",
"4X4X4X4X4X4X4X4X4X4X4X4X4X4X4X4X4X4X4X4X4X4X4X4X4X4X4X4Xe ; * 7 6.<.K C ~ A - . 4X4X4X4X4X4X4X4X4X4X4X4X4X4X4X4X4X4X4X4X4X4X4X4X",
"4X4X4X4X4X4X4X4X4X4X4X4X4X4X4X4X4X4X4X4X4X4X4X4X4X4X@ 7 | I i i 4.*.l s 2.O.y o 4X4X4X4X4X4X4X4X4X4X4X4X4X4X4X4X4X4X4X4X4X4X4X4X",
"4X4X4X4X4X4X4X4X4X4X4X4X4X4X4X4X4X4X4X4X4X4X4X4X4X4X7 x u.,.H i %. .g s e.6.I 6 4X4X4X4X4X4X4X4X4X4X4X4X4X4X4X4X4X4X4X4X4X4X4X4X",
"4X4X4X4X4X4X4X4X4X4X4X4X4X4X4X4X4X4X4X4X4X4X4X4XX e | r.7.W a i %. .p 9 X.7.r.*.6 o 4X4X4X4X4X4X4X4X4X4X4X4X4X4X4X4X4X4X4X4X4X4X",
"4X4X4X4X4X4X4X4X4X4X4X4X4X4X4X4X4X4X4X4X4X4X4X4XX 5 E <...f < y %. .p < f ..,.O.7 + 4X4X4X4X4X4X4X4X4X4X4X4X4X4X4X4X4X4X4X4X4X4X",
"4X4X4X4X4X4X4X4X4X4X4X4X4X4X4X4X4X4X4X4X4X4Xo o o * y g a 0 ; i &. .p - 0 a k d 7 * + + 4X4X4X4X4X4X4X4X4X4X4X4X4X4X4X4X4X4X4X4X",
"4X4X4X4X4X4X4X4X4X4X4X4X4X4X4X4X4X4X4X4X4X4X6 6 * % % - y a d x 4.&.I d s 9 - , 9 9 i 6 4X4X4X4X4X4X4X4X4X4X4X4X4X4X4X4X4X4X4X4X",
"4X4X4X4X4X4X4X4X4X4X4X4X4X4X4X4X4X4X4X4XX i | ,.L 2 , y o.e.r.u.w.w.w.e.e.| a , C ~ ,.+.7 o 4X4X4X4X4X4X4X4X4X4X4X4X4X4X4X4X4X4X",
"4X4X4X4X4X4X4X4X4X4X4X4X4X4X4X4X4X4X4X4XX 7 =.p./ B 3 s e.N.N.a.q.i.i.N.V.-.d , N ^ y.4.6 X 4X4X4X4X4X4X4X4X4X4X4X4X4X4X4X4X4X4X",
"4X4X4X4X4X4X4X4X4X4X4X4X4X4X4X4X4X4X4XO o r %.e.L 2 , d r.B.m.7.w.0.r.a.D.6.g : b W 6.-.6 + X O 4X4X4X4X4X4X4X4X4X4X4X4X4X4X4X4X",
"4X4X4X4X4X4X4X4X4X4X4X4X4X4X4X4X4X4XO @ = j v { a , 4 d e.a.7.@.5.3.@.8.N.<.g : : s E ] p = + O 4X4X4X4X4X4X4X4X4X4X4X4X4X4X4X4X",
"4X4X4X4X4X4X4X4X4X4X4X4X4X4X4X4X4X4Xo = O.+.P y - % : s r.d.6.+.@.@.@.8.m.8.k % 4 , 9 l ,.E 6 X 4X4X4X4X4X4X4X4X4X4X4X4X4X4X4X4X",
"4X4X4X4X4X4X4X4X4X4X4X4X4X4X4X4X4X  O 7 r.e.J , , : , s r.N.a.8.7.8.7.s.D.6.k 4 , : , R p.-.t . 4X4X4X4X4X4X4X4X4X4X4X4X4X4X4X4X",
"4X4X4X4X4X4X4X4X4X4X4X4X4X4X4Xo o X @ e k.7.R 4 n 2 1 d y.G.V.d.a.a.a.S.L.e.H , N b < Z p.e.p o o o O O 4X4X4X4X4X4X4X4X4X4X4X4X",
"4X4X4X4X4X4X4X4X4X4X4X4X4X4XO $ , 3 u Y c.1.L 3 B N 2 s r.K.K.V.a.k.k.z.G.6.k , B N 0 Z j.j.Q n 2 , $ O 4X4X4X4X4X4X4X4X4X4X4X4X",
"4X4X4X4X4X4X4X4X4X4X4X4X4X4Xo , _ _.`.]..Xg.A 4 2 2 3 i -.M.C.r.:./ ^ :.s.*.d , b 3 , Z '. X].`.`.U 0 X 4X4X4X4X4X4X4X4X4X4X4X4X",
"4X4X4X4X4X4X4X4X4X4X4X4X4X4Xo 2 _.+X$X$X&X`.D 4 3 3 3 y v 4.w.a.f./ Y Y >.E y - 2 , , G `.&X$X$X+X!.u X 4X4X4X4X4X4X4X4X4X4X4X4X",
"4X4X4X4X4X4X4X4X4X4X4X4X4X4Xo N `.#X%X$X$X`.D 4 3 2 2 0 y E r.K.z.1.Y Z Y A u : 2 , 4 V ].+X%X$X$X_.N X 4X4X4X4X4X4X4X4X4X4X4X4X",
"4X4X4X4X4X4X4X4X4X4X4X4X4X4Xo 2 !.{.@X@X#Xg.A 4 3 2 2 2 4 g e.L.P.t.L N V B 3 : 2 , , Z '.#X+XOXOX` u X 4X4X4X4X4X4X4X4X4X4X4X4X",
"4X4X4X4X4X4X4X4X4X4X4X4X4X4Xo , _ `.`.[.*Xh.H % 3 w w 3 : d -.C.C.-.L w n b , : 2 , , Z l.H.[.`.`.( 2 X 4X4X4X4X4X4X4X4X4X4X4X4X",
"4X4X4X4X4X4X4X4X4X4X4X4X4X4Xo % V ) ) 9.F.p.O.i 0 3 , : % p ] q.q.*.d , , : % % , 2 a E z.x.f.! ) V % O 4X4X4X4X4X4X4X4X4X4X4X4X",
"4X4X4X4X4X4X4X4X4X4X4X4X4X4Xo o % : 2 H k.V.r.c 9 , : : 4 p %.q.q.%.d , , , : : % y c 7.G.t.L , , % + O 4X4X4X4X4X4X4X4X4X4X4X4X",
"4X4X4X4X4X4X4X4X4X4X4X4X4X4XO O O . o 7 t.K.M. .y < u d d E e.i.r.*.x d d d s u < i  .m.L.e.i O X O O O 4X4X4X4X4X4X4X4X4X4X4X4X",
"4X4X4X4X4X4X4X4X4X4X4X4X4X4X4X4X4X4Xo 7 t.D.s.[ 9 s O.p.a.d.D.z.:.:.f.y.p.a.p.>.u 9 I u.G.6.t X 4X4X4X4X4X4X4X4X4X4X4X4X4X4X4X4X",
"4X4X4X4X4X4X4X4X4X4X4X4X4X4X4X4X4X  X 7 t.V.s.{ 9 k e.P.L.K.K.p.^ ^ f.z.G.L.K.t.s i [ u.G.4.t . 4X4X4X4X4X4X4X4X4X4X4X4X4X4X4X4X",
"4X4X4X4X4X4X4X4X4X4X4X4X4X4X4XO O X o i t.G.M. .y k e.L.Z.Z.N.r.~ ! ^ f.d.A.K.t.d i { i.P.6.f o o O O O 4X4X4X4X4X4X4X4X4X4X4X4X",
"4X4X4X4X4X4X4X4X4X4X4X4X4X4XO $ , 3 u Y b.I.a. .y k <.V.M.q.w.-.Q D D Q ,.s.M.e.d i | a.I.j.Q b b , $ X 4X4X4X4X4X4X4X4X4X4X4X4X",
"4X4X4X4X4X4X4X4X4X4X4X4X4X4Xo , _ _.`.]..X}.h.I 9 h <.V.n.n.q.-.A V S F ! 2.y.e.s y I h.{. X].`.`.) 2 X 4X4X4X4X4X4X4X4X4X4X4X4X",
"4X4X4X4X4X4X4X4X4X4X4X4X4X4Xo b `.+X$X&X$X|.h.{ 9 k e.K.Z.Z.M.e.H N B S D ;.k.t.s i I h. X&X$X&X+X` N X 4X4X4X4X4X4X4X4X4X4X4X4X",
"4X4X4X4X4X4X4X4X4X4X4X4X4X4Xo N `.&X%X$X$X.Xj.X.9 J 6.P.L.L.G.t.A n u N B ~ h.y.d i { l. X$X$X%X%X_.B X 4X4X4X4X4X4X4X4X4X4X4X4X",
"4X4X4X4X4X4X4X4X4X4X4X4X4X4Xo 2 ` OX+XOX#X}.k. .9 R 2.F.z.S.z.t.H u u C 0 L 6.6.d i | p.*X#X+X@XOX` N X 4X4X4X4X4X4X4X4X4X4X4X4X",
"4X4X4X4X4X4X4X4X4X4X4X4X4X4Xo , _ `.`.[.*XJ.t.[ 9 a I @.W W o.X.Z u R J 9 A ..X.9 i U t.J.*X[.`.`.) 2 X 4X4X4X4X4X4X4X4X4X4X4X4X",
"4X4X4X4X4X4X4X4X4X4X4X4X4X4Xo % V ) ) 9.F.S.@.h < 9 U [ K I X.+.K I | o.J U [ U 0 < h +.D.x.9.) ) B % o 4X4X4X4X4X4X4X4X4X4X4X4X",
"4X4X4X4X4X4X4X4X4X4X4X4X4X4XO + % , 3 H a.a.X.q < 9 U +.+.=.4.5.&.4.5.5.=.@.X.U 9 ; q { m.y.L , , % @ O 4X4X4X4X4X4X4X4X4X4X4X4X",
"4X4X4X4X4X4X4X4X4X4X4X4X4X4XO O X . o 7 t.S.,.J h J +.r.i.M.M.M.M.M.M.M.C.m.7.@.J h J +.D.6.i O X X O O 4X4X4X4X4X4X4X4X4X4X4X4X",
"4X4X4X4X4X4X4X4X4X4X4X4X4X4X4X4X4X4Xo 7 r.K.G.a.p.d.F.G.L.P.L.L.L.L.L.L.L.L.G.D.d.p.a.V.L.e.t X 4X4X4X4X4X4X4X4X4X4X4X4X4X4X4X4X",
"4X4X4X4X4X4X4X4X4X4X4X4X4X4X4X4X4X4Xo 7 4.K.L.K.K.K.K.L.L.L.L.K.L.L.K.L.L.L.G.K.K.K.K.L.L.&.r X 4X4X4X4X4X4X4X4X4X4X4X4X4X4X4X4X",
"4X4X4X4X4X4X4X4X4X4X4X4X4X4X4X4X4X4Xo 8 %.M.V.B.B.B.B.B.B.M.M.M.B.M.M.M.M.B.B.B.C.V.C.V.M.#.7 O 4X4X4X4X4X4X4X4X4X4X4X4X4X4X4X4X",
"4X4X4X4X4X4X4X4X4X4X4X4X4X4X4X4X4X4X> u x %.5.5.4.4.5.5.=.4.5.0.0.0.0.5.4.3.5.5.-.-.0.0.] z w # 4X4X4X4X4X4X4X4X4X4X4X4X4X4X4X4X",
"4X4X4X4X4X4X4X4X4X4X4X4X4X4X4X4X4X4XM m w p ' X.l P { X.l K } =.@.@.@.o.J J X.X.z x { [ i n m M 4X4X4X4X4X4X4X4X4X4X4X4X4X4X4X4X",
"4X4X4X4X4X4X4X4X4X4X4X4X4X4X4X4X4X4XT.Y.( / X.X.h l [ } h l [ 3.@.3.@.} h J [ } k l { +.~ ( Y.T.4X4X4X4X4X4X4X4X4X4X4X4X4X4X4X4X",
"4X4X4X4X4X4X4X4X4X4X4X4X4X4X4X4X4X4XR.!.XX|.b.=...o.=.8...X.=.u.u.u.5.8...o.=.3...} =.l. XXX!.R.4X4X4X4X4X4X4X4X4X4X4X4X4X4X4X4X",
"4X4X4X4X4X4X4X4X4X4X4X4X4X4X4X4X4X4XR.!.;X<X=XI.v.v.H.H.v.v.H.I.I.I.I.I.c.v.H.H.c.v.H.=X1X-X^.T.4X4X4X4X4X4X4X4X4X4X4X4X4X4X4X4X",
"4X4X4X4X4X4X4X4X4X4X4X4X4X4X4X4X4X4XT.Q.~.oX<X3X2X2X2X2X2X2X2X3X3X3X3X2X2X2X2X2X2X2X2X1XoX~.W.T.4X4X4X4X4X4X4X4X4X4X4X4X4X4X4X4X",
"4X4X4X4X4X4X4X4X4X4X4X4X4X4X4X4X4X4X4XT.R.^.-X:X:X>X:X:X:X:X:X:X>X>X:X:X:X:X:X:X>X>X:X-X~.R.T.T.4X4X4X4X4X4X4X4X4X4X4X4X4X4X4X4X",
"4X4X4X4X4X4X4X4X4X4X4X4X4X4X4X4X4X4X4X4XE.Q.~.).).)./././.)././.).).).).).).).).).).(.^.R.T.4X4X4X4X4X4X4X4X4X4X4X4X4X4X4X4X4X4X",
"4X4X4X4X4X4X4X4X4X4X4X4X4X4X4X4X4X4X4X4XT.T.T.T.T.T.T.T.T.T.T.T.T.T.T.T.T.T.T.T.T.T.T.T.T.T.4X4X4X4X4X4X4X4X4X4X4X4X4X4X4X4X4X4X",
"4X4X4X4X4X4X4X4X4X4X4X4X4X4X4X4X4X4X4X4X4X4X4X4X4X4X4X4X4X4X4X4X4X4X4X4X4X4X4X4X4X4X4X4X4X4X4X4X4X4X4X4X4X4X4X4X4X4X4X4X4X4X4X4X",
"4X4X4X4X4X4X4X4X4X4X4X4X4X4X4X4X4X4X4X4X4X4X4X4X4X4X4X4X4X4X4X4X4X4X4X4X4X4X4X4X4X4X4X4X4X4X4X4X4X4X4X4X4X4X4X4X4X4X4X4X4X4X4X4X",
"4X4X4X4X4X4X4X4X4X4X4X4X4X4X4X4X4X4X4X4X4X4X4X4X4X4X4X4X4X4X4X4X4X4X4X4X4X4X4X4X4X4X4X4X4X4X4X4X4X4X4X4X4X4X4X4X4X4X4X4X4X4X4X4X",
"4X4X4X4X4X4X4X4X4X4X4X4X4X4X4X4X4X4X4X4X4X4X4X4X4X4X4X4X4X4X4X4X4X4X4X4X4X4X4X4X4X4X4X4X4X4X4X4X4X4X4X4X4X4X4X4X4X4X4X4X4X4X4X4X"
};
