/* XPM */
static char *result[] = {
/* columns rows colors chars-per-pixel */
"64 64 199 2 ",
"   c #161616",
".  c #1B1A19",
"X  c #171819",
"o  c #211E1D",
"O  c #26221D",
"+  c #252525",
"@  c #2A2A2A",
"#  c #282726",
"$  c #342A24",
"%  c #3A2D25",
"&  c #322F2A",
"*  c #3C3226",
"=  c #3D352B",
"-  c #35312E",
";  c #353536",
":  c #363739",
">  c #3C3C3C",
",  c #433626",
"<  c #4B3B27",
"1  c #463A2B",
"2  c #4C3D2D",
"3  c #46372A",
"4  c #453B33",
"5  c #4A3E33",
"6  c #433C38",
"7  c #533E31",
"8  c #503F2A",
"9  c #51412E",
"0  c #4A4239",
"q  c #534334",
"w  c #5C4434",
"e  c #53463A",
"r  c #564A3B",
"t  c #5C4C3B",
"y  c #5A4935",
"u  c #4F402E",
"i  c #644B35",
"p  c #624D3C",
"a  c #674C37",
"s  c #6B533C",
"d  c #67513A",
"f  c #71543D",
"g  c #7B5B3E",
"h  c #715739",
"j  c #3D3F41",
"k  c #3F4143",
"l  c #444444",
"z  c #46484A",
"x  c #4B4B4C",
"c  c #494744",
"v  c #574D45",
"b  c #5D5143",
"n  c #5C534C",
"m  c #54514D",
"M  c #4F4F50",
"N  c #545454",
"B  c #5A5653",
"V  c #565758",
"C  c #595959",
"Z  c #57585A",
"A  c #635343",
"S  c #6A5542",
"D  c #6D5943",
"F  c #64594C",
"G  c #6A5C4B",
"H  c #695748",
"J  c #735B42",
"K  c #7C5C44",
"L  c #795744",
"P  c #645C56",
"I  c #674E40",
"U  c #7E6244",
"Y  c #7C654A",
"T  c #72624E",
"R  c #6C6155",
"E  c #736655",
"W  c #7B6D5C",
"Q  c #786A57",
"!  c #686767",
"~  c #706E6F",
"^  c #7D7165",
"/  c #737372",
"(  c #7B797A",
")  c #85643C",
"_  c #8A653F",
"`  c #926D3F",
"'  c #825E43",
"]  c #846344",
"[  c #8A6546",
"{  c #8D6944",
"}  c #846249",
"|  c #8A6649",
" . c #836A4C",
".. c #8D6B4A",
"X. c #866946",
"o. c #936E42",
"O. c #926A4B",
"+. c #9C6F4C",
"@. c #957144",
"#. c #9B7445",
"$. c #95734B",
"%. c #9D744A",
"&. c #9D794C",
"*. c #866D55",
"=. c #8D7252",
"-. c #81715E",
";. c #9D7453",
":. c #9D7A51",
">. c #957757",
",. c #946F51",
"<. c #A2744D",
"1. c #A47B4B",
"2. c #AA7D4C",
"3. c #A17846",
"4. c #A27551",
"5. c #A47C52",
"6. c #AA7C55",
"7. c #AE7E58",
"8. c #8D7A6A",
"9. c #AC814D",
"0. c #B2824E",
"q. c #BC8B4E",
"w. c #B6884E",
"e. c #A68154",
"r. c #AD8455",
"t. c #AC865A",
"y. c #AC885B",
"u. c #A78358",
"i. c #B48452",
"p. c #B48954",
"a. c #BB8B53",
"s. c #B6865A",
"d. c #B38A5B",
"f. c #BC8D5B",
"g. c #B88755",
"h. c #BE905A",
"j. c #918473",
"k. c #9E8E7A",
"l. c #B38E62",
"z. c #B88F61",
"x. c #B99366",
"c. c #AD8F6A",
"v. c #C18F53",
"b. c #C49254",
"n. c #C99656",
"m. c #C5935B",
"M. c #C9965B",
"N. c #CD9A5B",
"B. c #CC9857",
"V. c #D29E5E",
"C. c #C08D4E",
"Z. c #D5A05F",
"A. c #C39462",
"S. c #C99763",
"D. c #CC9A62",
"F. c #D19E64",
"G. c #D5A163",
"H. c #D9A566",
"J. c #DEA969",
"K. c #D9A568",
"L. c #E0AB6B",
"P. c #7A7C80",
"I. c #29959F",
"U. c #2F97A1",
"Y. c #349AA4",
"T. c #399CA6",
"R. c #66B2BA",
"E. c #74BAC0",
"W. c #828283",
"Q. c #868789",
"!. c #8D8D8D",
"~. c #87888A",
"^. c #918F8F",
"/. c #92908F",
"(. c #989897",
"). c #BC9A81",
"_. c #AE9F8B",
"`. c #B8A894",
"'. c #A3A4A6",
"]. c #B3B4B4",
"[. c #BBBAB8",
"{. c #C9A581",
"}. c #C9A581",
"|. c #D1AC81",
" X c #C6BFBA",
".X c #CEC7BA",
"XX c #E1D3BF",
"oX c #C6C7C7",
"OX c #D9CDC2",
"+X c #D7CBC1",
"@X c #DED1C1",
"#X c #C2DDDF",
"$X c #E2D5C1",
"%X c #C3DEE1",
"&X c #CEE3E5",
"*X c #E8EBEB",
"=X c #F6F5F5",
"-X c #F8F8F8",
";X c None",
/* pixels */
";X;X;X;X;X;X;X;X;X;X;X;X;X;X;X;X;X;X;X;X;X;X;X;X;X;X;X;X;X;X;X;X;X;X;X;X;X;X;X;X;X;X;X;X;X;X;X;X;X;X;X;X;X;X;X;X;X;X;X;X;X;X;X;X",
";X;X;X;X;X;X;X;X;X;X;X;X;X;X;X;X;X;X;X;X;X;X;X;X;X;X;X;X;X;X;X;X;X;X;X;X;X;X;X;X;X;X;X;X;X;X;X;X;X;X;X;X;X;X;X;X;X;X;X;X;X;X;X;X",
";X;X;X;X;X;X;X;X;X;X;X;X;X;X;X;X;X;X;X;X;X;X;X;X;X;X;X;X;X;X;X;X;X;X;X;X;X;X;X;X;X;X;X;X;X;X;X;X;X;X;X;X;X;X;X;X;X;X;X;X;X;X;X;X",
";X;X;X;X;X;X;X;X;X;X;X;X;X;X;X;X;X;X;X;X;X;X;X;X;X;X;X;X;X;X;X;X;X;X;X;X;X;X;X;X;X;X;X;X;X;X;X;X;X;X;X;X;X;X;X;X;X;X;X;X;X;X;X;X",
";X;X;X;X;X;X;X;X;X;X;X;X;X;X;X;X;X;X;X;X;X;X;X;X;X;X;X;X;X;X;X;X;X;X;X;X;X;X;X;X;X;X;X;X;X;X;X;X;X;X;X;X;X;X;X;X;X;X;X;X;X;X;X;X",
";X;X;X;X;X;X;X;X;X;X;X;X;X;X;X;X;X;X;X;X;X;X;X;X;X;X;X;X;X;X;X;X;X;X;X;X;X;X;X;X;X;X;X;X;X;X;X;X;X;X;X;X;X;X;X;X;X;X;X;X;X;X;X;X",
";X;X;X;X;X;X;X;X;X;X;X;X;X;X;X;X;X;X;X;X;X;X;X;X;X;X;X;X;X;X;X;X;X;X;XX . . X X ;X;X;X;X;X;X;X;X;X;X;X;X;X;X;X;X;X;X;X;X;X;X;X;X",
";X;X;X;X;X;X;X;X;X;X;X;X;X;X;X;X;X;X;X;X;X;X;X;X;X;X;X;X;X;X;X;X;X;X+ & 1 * O   ;X;X;X;X;X;X;X;X;X;X;X;X;X;X;X;X;X;X;X;X;X;X;X;X",
";X;X;X;X;X;X;X;X;X;X;X;X;X;X;X;X;X;X;X;X;X;X;X;X;X;X;X;X;X;X;X;X  + > F >.U 1   ;X;X;X;X;X;X;X;X;X;X;X;X;X;X;X;X;X;X;X;X;X;X;X;X",
";X;X;X;X;X;X;X;X;X;X;X;X;X;X;X;X;X;X;X;X;X;X;X;X;X;X;X;X;X;X;X;X@ ; x W d.$.9   ;X;X;X;X;X;X;X;X;X;X;X;X;X;X;X;X;X;X;X;X;X;X;X;X",
";X;X;X;X;X;X;X;X;X;X;X;X;X;X;X;X;X;X;X;X;X;X;X;X;X;X;X;X;X;XX @ > l C W d.@.u   ;X;X;X;X;X;X;X;X;X;X;X;X;X;X;X;X;X;X;X;X;X;X;X;X",
";X;X;X;X;X;X;X;X;X;X;X;X;X;X;X;X;X;X;X;X;X;X;X;X;X;X;X;X;X;X@ ; x N M G &.) <   ;X;X;X;X;X;X;X;X;X;X;X;X;X;X;X;X;X;X;X;X;X;X;X;X",
";X;X;X;X;X;X;X;X;X;X;X;X;X;X;X;X;X;X;X;X;X;X;X;X;X;X;X;X  @ > x N z > 9 @.) <   ;X;X;X;X;X;X;X;X;X;X;X;X;X;X;X;X;X;X;X;X;X;X;X;X",
";X;X;X;X;X;X;X;X;X;X;X;X;X;X;X;X;X;X;X;X;X;X;X;X;X;X;X;X  @ l Z N > @ , ` ) <   ;X;X;X;X;X;X;X;X;X;X;X;X;X;X;X;X;X;X;X;X;X;X;X;X",
";X;X;X;X;X;X;X;X;X;X;X;X;X;X;X;X;X;X;X;X;X;X;X;X;X;X;X;X  @ l N x ; + , ` ) 9 . ;X;X;X;X;X;X;X;X;X;X;X;X;X;X;X;X;X;X;X;X;X;X;X;X",
";X;X;X;X;X;X;X;X;X;X;X;X;X;X;X;X;X;X;X;X;X;X;X;X;X;X;X;X  @ > l z : @ 2 ` @.h 1 ;X;X;X;X;X;X;X;X;X;X;X;X;X;X;X;X;X;X;X;X;X;X;X;X",
";X;X;X;X;X;X;X;X;X;X;X;X;X;X;X;X;X;X;X;X;X;X;X;X;X;X;X;X;X;X@ ; c z 0 t #.a.p...1 . ;X;X;X;X;X;X;X;X;X;X;X;X;X;X;X;X;X;X;X;X;X;X",
";X;X;X;X;X;X;X;X;X;X;X;X;X;X;X;X;X;X;X;X;X;X;X;X;X;X;X;X;X;X;X+ > c n Y 9.n.N.p.h 2 ;X;X;X;X;X;X;X;X;X;X;X;X;X;X;X;X;X;X;X;X;X;X",
";X;X;X;X;X;X;X;X;X;X;X;X;X;X;X;X;X;X;X;X;X;X;X;X;X;X;X;X;X;X;X;X@ 0  .r.w.a.b.v.2.g 1   ;X;X;XX . . . . ;X;X;X;X;X;X;X;X;X;X;X;X",
";X;X;X;X;X;X;X;X;X;X;X;X;X;X;X;X;X;X;X;X;X;X;X;X;X;X;X;X;X;X;X;X+ t &.N.a.9.0.g.M.&.9 X ;X;XX O * = & + ;X;X;X;X;X;X;X;X;X;X;X;X",
";X;X;X;X;X;X;X;X;X;X;X;X;X;X;X;X;X;X;X;X;X;XX       ;X;X;X;XX + > T y.M.6.%.+.6.M.$.9 X ;X;X. * X.=.G > # . ;X;X;X;X;X;X;X;X;X;X",
";X;X;X;X;X;X;X;X;X;X;X;X;X;X;X;X;X;X;X;X;X;X@ - u u = ;X;X. @ ; x W l.D.s.6.6.s.D.&.9   ;XX @ r u.y.-.x ; @ ;X;X;X;X;X;X;X;X;X;X",
";X;X;X;X;X;X;X;X;X;X;X;X;X;X;X;X;X;X;X;XX @ > b ..] 2   X @ > z V -.x.G.M.f.f.M.G.5.q X   + > G y.y.W N z > @ . ;X;X;X;X;X;X;X;X",
";X;X;X;X;X;X;X;X;X;X;X;X;X;X;X;X;X;X;X;X+ ; x W x.&.9 X + ; x Z C W l.H.G.N.N.V.H.&.9 X + ; x E e.$.T N N z ; + ;X;X;X;X;X;X;X;X",
";X;X;X;X;X;X;X;X;X;X;X;X;X;XX X ;X;XX + > x V Q y.` u O > x N Z C W e.b.b.q.b.b.b.o.u o > z C Q 1.$.G z N N x > + . ;X;X;X;X;X;X",
";X;X;X;X;X;X;X;X;X;X;X;X;X* u u ;X# @ ; M M x G &.$.G z N Z Z Z N n Y $.9.9.9.9.#.h 0 ; x N C E e.1...T W -.W G & X ;X;X;X;X;X;X",
";X;X;X;X;X;X;X;X;X;X;X;X. q ] X.1 @ : z N z > q @.c.j.( ! C V N x 0 r s { <.#...s e l x V Z C E &.p.r.u.y.l.y. .= .   . ;X;X;X;X",
";X;X;X;X;X;X;X;X;X;X;X;X+ p &.e.2 @ l C N k @ , ` x.`.(.~ C m x 0 l v s | <.+.} e l x C C N V R e.a.b.m.m.h.r.Y = $ % 1 ;X;X;X;X",
";X;X;X;X;X;X;X;X;X;XX # > T :.#., & k Z x > - u ` x.`.(.~ N z l > F =.d.i.0.0.$.F N N Z C M x A #.0.9.5.5.O.S u & e X...u . ;X;X",
";X;X;X;X;X;X;X;X;X;X@ : x Q :.` , = n E x : ; r &.x.).j.~ N l > > b $.d.a.0.5.=.R C Z Z M z l b $.w.7.5.<.O.K r = D e.r.u . ;X;X",
";X;X;X;X;X;X;X;XX @ > z N Q &.` , u  .>.n > > t &.y.k.R.! M l > > c D { 9.9.=.E P C C N x l l A #.a.v.a.9.r.u...t U y.d.u . ;X;X",
";X;X;X;X;X;X;X;X+ : z V N E &.` 1 i &.d.D > > t &.e.8.R N x l > > 6 5 i #.5.=.E P P n m b b A Y 1.v.V.N.b.M.G.f.s U u.r.u o ;X;X",
";X;X  X     X + k x N N z G @.#.w d #.2.d 6 > b &.#.K e 0 0 6 k j 6 4 i #.w.9.&.O.L v p [ <.e.p.w.b.N.N.v.V.V.f.f ] t.r.5 o ;X;X",
";X# % 3 u 2 ; ; x M N N G ..1.1._ [ %.#.g s f  .9.1.X.h s s H b l > 6 d 3.q.q.r.+.f w a #.a.N.N.v.b.N.N.C.B.F.f.s U r.y.2 o ;X;X",
"X $ 7 K $. .F x N N M F >.d.v.a.a.r.<.%.#.&.5.r.p.w.9.1.#.3.1.=.b > > p #.q.C.w.+.' i i 3.b.V.V.b.n.M.N.v.V.F.z.f ] e.r.2 o ;X;X",
"  $ w ..s.l.>.E E G G  .A.H.F.N.G.m.6.+.0.b.V.N.b.b.N.N.b.n.M.d.Y r 0 v o.0.0.2.<.' i a 1.B.Z.V.M.N.V.Z.V.V.F.f.f U r.r.2 . ;X;X",
";X;X% 7 [ 6.6.5.e.&.&.r.F.L.L.F.M.i.<.<.0.b.N.N.C.b.N.N.b.b.N.M.9.Y v v } %.<.<.2._ f f p.H.L.J.H.H.K.J.K.L.J.z.D U e.d.2 . ;X;X",
";X;X;X$ i f g ) ) @.3.a.S.F.L.L.V.g.<.+.0.b.N.N.b.b.V.V.b.n.N.V.b.1.X.Y O.4.6.7.q.@.h a 6.z.z.l.x.D.S.A.d.z.x.6.a ' r.r.2 o ;X;X",
";X;X;X;X$ , , < < i ] <.6.s.F.L.K.m.6.+.0.v.M.N.q.b.n.M.v.b.M.N.v.w.r.e.6.i.a.v.a.@.a p O.,. .Y ;.7.7.;.Y  .,.O.a K r.r.2 . ;X;X",
";X;X;X;X          $ i f S ..s.F.G.S.s.6.9.a.a.a.a.r.9.1.#.1.p.v.0.g.a.v.i.g.a.g.1.g w 7 K ' S S { +.+.| S D K K w K r.d.2 o ;X;X",
";X;X;X;X;X;X;X;X;X;X$ $ $ w ' i.f.n.S.A.6.<.4.4.4.[ S e e s | 4.<.%.4.4.;.4.4.O.p 4 = 5 L O.%.3.2.0.0.2.%.+.O.L w K y.r.u o ;X;X",
";X;X;X;X;X;X;X;X;X;X;X. . $ w ' <.a.N.S.s.7.7.;.} G n N N n H } 4.7.7.7.7.;.} H F N N B H ..r.b.n.n.m.n.m.v.i.;.} :.h.r.2 . ;X;X",
";X;X;X;X;X;X;X;X;X;X;X;X;Xo $ 7 ' 1.v.M.S.D.A.6.S n ~ Q.~.~ n s 6.S.D.S.D.:.J n / ~.~./ n J r.H.H.H.H.G.H.G.F.A.f.S.D.r.2 o ;X;X",
";X;X;X;X;X;X;X;X;X;X;X;X;X;X. $ i ' <.a.F.J.F.r.r N Q.].].~.V t u.F.L.J.G.5.p x ^.].].^.x A 1.G.H.H.H.H.H.H.H.H.H.L.G.e.2 . ;X;X",
";X;X;X;X;X;X;X;X;X;X;X;X;X;X;X;X$ 7 ' 6.a.n.b.3.e N Q.].].~.N e 1.b.B.n.n.o.t M ^.].].^.M t @.n.n.n.b.n.n.n.b.n.n.B.b.@., X ;X;X",
";X;X;X;X;X;X;X;X;X;X;X;X;X;X;X;XV n p ' <.w.2.{ u M P.'.'.P.M 5 X.3.&.%.2.] e z W.'.'.P.z e ] 2.#.&.1.2.7.1.%.#.2.i.2._ %   ;X;X",
";X;X;X;X;X;X;X;X;X;X;X;X;X;X;X;X].Q.P 7 ' +.<.' u x / ^././ x u ' [ J J { g e l / ^.^.( l e K | J J | <.%.| J f O.<.+.g * o ;X;X",
";X;X;X;X;X;X;X;X;X;X;X;X;X;X;X;X=XoXW.v p ' ' ' t F W j.j.W F t [ ' S p } ' s A -.j.j.^ A s ' X.I I ' %.%.' I p [ [ K I n N ;X;X",
";X;X;X;X;X;X;X;X;X;X;X;X;X;X;X;X-X*XoX(.n 7 L O.+.%.e.u.y.e.1.:.2.%...| <.1.1.#.e.y.y.e.#.3.1.1.} | #.0.0.%.| | <._ y m (.[.;X;X",
";X;X;X;X;X;X;X;X;X;X;X;X;X;X;X;X=X-X*XoXW.^ 8.).{.|.|.|.|.|.K.|.|.}.)._.K.|.|.|.|.|.|.|.|.|.|.}.).).}.|.|.}.).).}.c.8.( [.;X;X;X",
";X;X;X;X;X;X;X;X;X;X;X;X;X;X;X;X;X;X-X*XoX[. X+X$X$XXXXXXX$X$X$X$XOXOXOX@X@X$X$X$XXX$X$X$X$X@X@X+XOX@X$X@X@XOXOX@X.X[.].;X;X;X;X",
";X;X;X;X;X;X;X;X;X;X;X;X;X;X;X;X;X;X=X=X=X*X&X%X#X%X#X%X%X%X%X%X%X%X%X%X%X%X%X#X%X%X%X%X%X%X%X%X%X%X%X%X%X%X%X%X%X%X%X#X;X;X;X;X",
";X;X;X;X;X;X;X;X;X;X;X;X;X;X;X;X;X;X;X;X;X;XE.R.R.R.R.R.R.R.R.R.R.R.R.R.R.R.R.R.R.R.R.R.R.R.R.R.R.R.R.R.R.R.R.R.R.R.R.R.;X;X;X;X",
";X;X;X;X;X;X;X;X;X;X;X;X;X;X;X;X;X;X;X;X;X;X;XT.T.T.T.T.T.T.T.T.T.T.T.T.T.T.T.T.T.T.T.T.T.T.T.T.T.T.T.T.T.T.T.T.T.T.T.T.;X;X;X;X",
";X;X;X;X;X;X;X;X;X;X;X;X;X;X;X;X;X;X;X;X;X;X;X;X;XI.U.U.U.U.U.U.U.U.Y.U.U.U.U.U.U.U.Y.U.U.U.U.U.U.U.U.U.U.U.U.U.;X;X;X;X;X;X;X;X",
";X;X;X;X;X;X;X;X;X;X;X;X;X;X;X;X;X;X;X;X;X;X;X;X;X;XY.Y.Y.Y.Y.Y.Y.Y.Y.Y.Y.Y.Y.Y.Y.Y.Y.Y.Y.Y.T.T.Y.Y.Y.Y.Y.Y.Y.Y.;X;X;X;X;X;X;X;X",
";X;X;X;X;X;X;X;X;X;X;X;X;X;X;X;X;X;X;X;X;X;X;X;X;X;X;X;X;X;X;X;X;X;X;X;X;X;X;X;X;X;X;X;X;X;X;X;X;X;X;X;X;X;X;X;X;X;X;X;X;X;X;X;X",
";X;X;X;X;X;X;X;X;X;X;X;X;X;X;X;X;X;X;X;X;X;X;X;X;X;X;X;X;X;X;X;X;X;X;X;X;X;X;X;X;X;X;X;X;X;X;X;X;X;X;X;X;X;X;X;X;X;X;X;X;X;X;X;X",
";X;X;X;X;X;X;X;X;X;X;X;X;X;X;X;X;X;X;X;X;X;X;X;X;X;X;X;X;X;X;X;X;X;X;X;X;X;X;X;X;X;X;X;X;X;X;X;X;X;X;X;X;X;X;X;X;X;X;X;X;X;X;X;X",
";X;X;X;X;X;X;X;X;X;X;X;X;X;X;X;X;X;X;X;X;X;X;X;X;X;X;X;X;X;X;X;X;X;X;X;X;X;X;X;X;X;X;X;X;X;X;X;X;X;X;X;X;X;X;X;X;X;X;X;X;X;X;X;X",
";X;X;X;X;X;X;X;X;X;X;X;X;X;X;X;X;X;X;X;X;X;X;X;X;X;X;X;X;X;X;X;X;X;X;X;X;X;X;X;X;X;X;X;X;X;X;X;X;X;X;X;X;X;X;X;X;X;X;X;X;X;X;X;X",
";X;X;X;X;X;X;X;X;X;X;X;X;X;X;X;X;X;X;X;X;X;X;X;X;X;X;X;X;X;X;X;X;X;X;X;X;X;X;X;X;X;X;X;X;X;X;X;X;X;X;X;X;X;X;X;X;X;X;X;X;X;X;X;X",
";X;X;X;X;X;X;X;X;X;X;X;X;X;X;X;X;X;X;X;X;X;X;X;X;X;X;X;X;X;X;X;X;X;X;X;X;X;X;X;X;X;X;X;X;X;X;X;X;X;X;X;X;X;X;X;X;X;X;X;X;X;X;X;X",
";X;X;X;X;X;X;X;X;X;X;X;X;X;X;X;X;X;X;X;X;X;X;X;X;X;X;X;X;X;X;X;X;X;X;X;X;X;X;X;X;X;X;X;X;X;X;X;X;X;X;X;X;X;X;X;X;X;X;X;X;X;X;X;X"
};
