/* XPM */
static char *result[] = {
/* columns rows colors chars-per-pixel */
"64 64 199 2 ",
"   c #161616",
".  c #1B1A19",
"X  c #171819",
"o  c #211E1D",
"O  c #26221D",
"+  c #252525",
"@  c #2A2A2A",
"#  c #282726",
"$  c #342A24",
"%  c #3A2D25",
"&  c #322F2A",
"*  c #3C3226",
"=  c #3D352B",
"-  c #35312E",
";  c #353536",
":  c #363739",
">  c #3C3C3C",
",  c #433626",
"<  c #4B3B27",
"1  c #463A2B",
"2  c #4C3D2D",
"3  c #46372A",
"4  c #453B33",
"5  c #4A3E33",
"6  c #433C38",
"7  c #533E31",
"8  c #503F2A",
"9  c #51412E",
"0  c #4A4239",
"q  c #534334",
"w  c #5C4434",
"e  c #53463A",
"r  c #564A3B",
"t  c #5C4C3B",
"y  c #5A4935",
"u  c #4F402E",
"i  c #644B35",
"p  c #624D3C",
"a  c #674C37",
"s  c #6B533C",
"d  c #67513A",
"f  c #71543D",
"g  c #7B5B3E",
"h  c #715739",
"j  c #3D3F41",
"k  c #3F4143",
"l  c #444444",
"z  c #46484A",
"x  c #4B4B4C",
"c  c #494744",
"v  c #574D45",
"b  c #5D5143",
"n  c #5C534C",
"m  c #54514D",
"M  c #4F4F50",
"N  c #545454",
"B  c #5A5653",
"V  c #565758",
"C  c #595959",
"Z  c #57585A",
"A  c #635343",
"S  c #6A5542",
"D  c #6D5943",
"F  c #64594C",
"G  c #6A5C4B",
"H  c #695748",
"J  c #735B42",
"K  c #7C5C44",
"L  c #795744",
"P  c #645C56",
"I  c #674E40",
"U  c #7E6244",
"Y  c #7C654A",
"T  c #72624E",
"R  c #6C6155",
"E  c #736655",
"W  c #7B6D5C",
"Q  c #786A57",
"!  c #686767",
"~  c #706E6F",
"^  c #7D7165",
"/  c #737372",
"(  c #7B797A",
")  c #85643C",
"_  c #8A653F",
"`  c #926D3F",
"'  c #825E43",
"]  c #846344",
"[  c #8A6546",
"{  c #8D6944",
"}  c #846249",
"|  c #8A6649",
" . c #836A4C",
".. c #8D6B4A",
"X. c #866946",
"o. c #936E42",
"O. c #926A4B",
"+. c #9C6F4C",
"@. c #957144",
"#. c #9B7445",
"$. c #95734B",
"%. c #9D744A",
"&. c #9D794C",
"*. c #866D55",
"=. c #8D7252",
"-. c #81715E",
";. c #9D7453",
":. c #9D7A51",
">. c #957757",
",. c #946F51",
"<. c #A2744D",
"1. c #A47B4B",
"2. c #AA7D4C",
"3. c #A17846",
"4. c #A27551",
"5. c #A47C52",
"6. c #AA7C55",
"7. c #AE7E58",
"8. c #8D7A6A",
"9. c #AC814D",
"0. c #B2824E",
"q. c #BC8B4E",
"w. c #B6884E",
"e. c #A68154",
"r. c #AD8455",
"t. c #AC865A",
"y. c #AC885B",
"u. c #A78358",
"i. c #B48452",
"p. c #B48954",
"a. c #BB8B53",
"s. c #B6865A",
"d. c #B38A5B",
"f. c #BC8D5B",
"g. c #B88755",
"h. c #BE905A",
"j. c #918473",
"k. c #9E8E7A",
"l. c #B38E62",
"z. c #B88F61",
"x. c #B99366",
"c. c #AD8F6A",
"v. c #C18F53",
"b. c #C49254",
"n. c #C99656",
"m. c #C5935B",
"M. c #C9965B",
"N. c #CD9A5B",
"B. c #CC9857",
"V. c #D29E5E",
"C. c #C08D4E",
"Z. c #D5A05F",
"A. c #C39462",
"S. c #C99763",
"D. c #CC9A62",
"F. c #D19E64",
"G. c #D5A163",
"H. c #D9A566",
"J. c #DEA969",
"K. c #D9A568",
"L. c #E0AB6B",
"P. c #7A7C80",
"I. c #29959F",
"U. c #2F97A1",
"Y. c #349AA4",
"T. c #399CA6",
"R. c #66B2BA",
"E. c #74BAC0",
"W. c #828283",
"Q. c #868789",
"!. c #8D8D8D",
"~. c #87888A",
"^. c #918F8F",
"/. c #92908F",
"(. c #989897",
"). c #BC9A81",
"_. c #AE9F8B",
"`. c #B8A894",
"'. c #A3A4A6",
"]. c #B3B4B4",
"[. c #BBBAB8",
"{. c #C9A581",
"}. c #C9A581",
"|. c #D1AC81",
" X c #C6BFBA",
".X c #CEC7BA",
"XX c #E1D3BF",
"oX c #C6C7C7",
"OX c #D9CDC2",
"+X c #D7CBC1",
"@X c #DED1C1",
"#X c #C2DDDF",
"$X c #E2D5C1",
"%X c #C3DEE1",
"&X c #CEE3E5",
"*X c #E8EBEB",
"=X c #F6F5F5",
"-X c #F8F8F8",
";X c None",
/* pixels */
";X;X;X;X;X;X;X;X;X;X;X;X;X;X;X;X;X;X;X;X;X;X;X;X;X;X;X;X;X;X;X;X;X;X;X;X;X;X;X;X;X;X;X;X;X;X;X;X;X;X;X;X;X;X;X;X;X;X;X;X;X;X;X;X",
";X;X;X;X;X;X;X;X;X;X;X;X;X;X;X;X;X;X;X;X;X;X;X;X;X;X;X;X;X;X;X;X;X;X;X;X;X;X;X;X;X;X;X;X;X;X;X;X;X;X;X;X;X;X;X;X;X;X;X;X;X;X;X;X",
";X;X;X;X;X;X;X;X;X;X;X;X;X;X;X;X;X;X;X;X;X;X;X;X;X;X;X;X;X;X;X;X;X;X;X;X;X;X;X;X;X;X;X;X;X;X;X;X;X;X;X;X;X;X;X;X;X;X;X;X;X;X;X;X",
";X;X;X;X;X;X;X;X;X;X;X;X;X;X;X;X;X;X;X;X;X;X;X;X;X;X;X;X;X;X;X;X;X;X;X;X;X;X;X;X;X;X;X;X;X;X;X;X;X;X;X;X;X;X;X;X;X;X;X;X;X;X;X;X",
";X;X;X;X;X;X;X;X;X;X;X;X;X;X;X;X;X;X;X;X;X;X;X;X;X;X;X;X;X;X;X;X;X;X;X;X;X;X;X;X;X;X;X;X;X;X;X;X;X;X;X;X;X;X;X;X;X;X;X;X;X;X;X;X",
";X;X;X;X;X;X;X;X;X;X;X;X;X;X;X;X;X;X;X;X;X;X;X;X;X;X;X;X;X;X;X;X;X;X;X;X;X;X;X;X;X;X;X;X;X;X;X;X;X;X;X;X;X;X;X;X;X;X;X;X;X;X;X;X",
";X;X;X;X;X;X;X;X;X;X;X;X;X;X;X;X;X;X;X;X;X;X;X;X. . . . . ;X;X;X;X;X;X;X;X;X;X;X;X;X;X;X;X;X;X;X;X;X;X;X;X;X;X;X;X;X;X;X;X;X;X;X",
";X;X;X;X;X;X;X;X;X;X;X;X;X;X;X;X;X;X;X;X;X;X;X;X. O * = & # ;X;X;X;X;X;X;X;X;X;X;X;X;X;X;X;X;X;X;X;X;X;X;X;X;X;X;X;X;X;X;X;X;X;X",
";X;X;X;X;X;X;X;X;X;X;X;X;X;X;X;X;X;X;X;X;X;X;X;X  u T e.n j + X ;X;X;X;X;X;X;X;X;X;X;X;X;X;X;X;X;X;X;X;X;X;X;X;X;X;X;X;X;X;X;X;X",
";X;X;X;X;X;X;X;X;X;X;X;X;X;X;X;X;X;X;X;X;X;X;X;X  9 $.d.W x : + ;X;X;X;X;X;X;X;X;X;X;X;X;X;X;X;X;X;X;X;X;X;X;X;X;X;X;X;X;X;X;X;X",
";X;X;X;X;X;X;X;X;X;X;X;X;X;X;X;X;X;X;X;X;X;X;X;X  u ` p.W V z > @ . ;X;X;X;X;X;X;X;X;X;X;X;X;X;X;X;X;X;X;X;X;X;X;X;X;X;X;X;X;X;X",
";X;X;X;X;X;X;X;X;X;X;X;X;X;X;X;X;X;X;X;X;X;X;X;X  < g e.G m N x : # ;X;X;X;X;X;X;X;X;X;X;X;X;X;X;X;X;X;X;X;X;X;X;X;X;X;X;X;X;X;X",
";X;X;X;X;X;X;X;X;X;X;X;X;X;X;X;X;X;X;X;X;X;X;X;X  < ) ` u > z N x > @   ;X;X;X;X;X;X;X;X;X;X;X;X;X;X;X;X;X;X;X;X;X;X;X;X;X;X;X;X",
";X;X;X;X;X;X;X;X;X;X;X;X;X;X;X;X;X;X;X;X;X;X;X;X  * ) ` , @ > N Z l @   ;X;X;X;X;X;X;X;X;X;X;X;X;X;X;X;X;X;X;X;X;X;X;X;X;X;X;X;X",
";X;X;X;X;X;X;X;X;X;X;X;X;X;X;X;X;X;X;X;X;X;X;X;X. 9 ) ` * + : x N l @   ;X;X;X;X;X;X;X;X;X;X;X;X;X;X;X;X;X;X;X;X;X;X;X;X;X;X;X;X",
";X;X;X;X;X;X;X;X;X;X;X;X;X;X;X;X;X;X;X;X;X;X;X;Xu g ` ` u & : z z > @   ;X;X;X;X;X;X;X;X;X;X;X;X;X;X;X;X;X;X;X;X;X;X;X;X;X;X;X;X",
";X;X;X;X;X;X;X;X;X;X;X;X;X;X;X;X;X;X;X;X;X;X. 1 ..p.a.$.y 0 k c ; + ;X;X;X;X;X;X;X;X;X;X;X;X;X;X;X;X;X;X;X;X;X;X;X;X;X;X;X;X;X;X",
";X;X;X;X;X;X;X;X;X;X;X;X;X;X;X;X;X;X;X;X;X;Xu h p.N.b.9.Y n c > + ;X;X;X;X;X;X;X;X;X;X;X;X;X;X;X;X;X;X;X;X;X;X;X;X;X;X;X;X;X;X;X",
";X;X;X;X;X;X;X;X;X;X;X;X. . . . . ;X;X;X  1 g e.a.n.C.g.r. .e @ ;X;X;X;X;X;X;X;X;X;X;X;X;X;X;X;X;X;X;X;X;X;X;X;X;X;X;X;X;X;X;X;X",
";X;X;X;X;X;X;X;X;X;X;X;X+ & = * O X ;X;X  9 $.N.a.0.0.q.N.&.t + ;X;X;X;X;X;X;X;X;X;X;X;X;X;X;X;X;X;X;X;X;X;X;X;X;X;X;X;X;X;X;X;X",
";X;X;X;X;X;X;X;X;X;X. + j G =.X.= . ;X;X  9 #.M.7.+.+.6.m.t.E > + X ;X;X;X;XX   X   ;X;X;X;X;X;X;X;X;X;X;X;X;X;X;X;X;X;X;X;X;X;X",
";X;X;X;X;X;X;X;X;X;X@ : x W y.e.r @ X ;X  9 &.D.s.5.6.s.N.z.W x : @ . ;X;X* u u - @ ;X;X;X;X;X;X;X;X;X;X;X;X;X;X;X;X;X;X;X;X;X;X",
";X;X;X;X;X;X;X;XX @ > c N W u.r.G > +   X 9 &.K.M.h.h.A.K.x.-.V z > @ X   u ] =.b > @ X ;X;X;X;X;X;X;X;X;X;X;X;X;X;X;X;X;X;X;X;X",
";X;X;X;X;X;X;X;X+ : c V N E &.e.E x ; + . q &.G.G.N.N.V.G.l.W C Z x ; + . 9 &.x.W x : + ;X;X;X;X;X;X;X;X;X;X;X;X;X;X;X;X;X;X;X;X",
";X;X;X;X;X;X. + > x N N x G $.&.Q C x > + < o.b.b.b.b.b.b.e.Q Z C N x : + 8 o.r.Q V c j # . ;X;X  X ;X;X;X;X;X;X;X;X;X;X;X;X;X;X",
";X;X;X;X;X;X  & F -.-.Q T  .1.e.E C N x ; 0 h #.1.0.2.1.@.Y F N V C Z M z G $.&.F x M x : # O ;Xu u * ;X;X;X;X;X;X;X;X;X;X;X;X;X",
";X;X;X;X.   . =  .y.l.y.u.r.w.5.E C Z V x 0 r s { <.<.O.s r 0 x N V C ! ( j.y.@.q > x N x : @ = X.U q X ;X;X;X;X;X;X;X;X;X;X;X;X",
";X;X;X;X1 * # , X.r.f.m.m.b.a.1.G V N C C x l c ' +.%.{ D e l l x N C / '.`.x.` , & k N Z k & u e.&.d + ;X;X;X;X;X;X;X;X;X;X;X;X",
";X;Xo 1 $.Y e & 5 S ..4.5.7.0.&.F x M Z C N M F ;.2.w.0.d.=.n l k c N ~ (.`.x.$.u & > x N k & , #.:.T j + X ;X;X;X;X;X;X;X;X;X;X",
";X;X. 2 r.e.S 4 t J O.<.2.7.w.%.b l z M Z Z Z R =.5.w.q.p.=.A > j k N ~ /._.c.&.e : : x E n = , ` :.Q x : + ;X;X;X;X;X;X;X;X;X;X",
";X;X. u d.t.U y ..e.r.0.g.v.g.#.A l l x N Z C P E =.r.9.{ s c j j l N ! P.k.l.#.t > > n u.Q 9 , ` &.Q B z > @ . ;X;X;X;X;X;X;X;X",
";X;X. u r.u.] s z.G.B.b.V.N.b.1.U A b b m n P R R =.5.#.a 5 6 6 > l x Z R 8.e.&.t > > D y.&.y 1 o.&.E N V x : + ;X;X;X;X;X;X;X;X",
";X;X. 2 t.r.] f f.G.B.b.N.N.b.p.i.r.1.] I v L | &.9.w.#.i 4 > j j 6 0 0 r U $.&.b > 6 s 1.#.s w ` $.G c N N x k + X         ;X;X",
";X;Xo 2 i.u.U s f.G.N.q.N.B.b.b.N.M.v.#.i w L +.i.C.w.3.a 1 > l b D h s s { 3.9.} S s g %.#.{ X.9.2...G N N M x ; - 1 q 3 % # ;X",
";X;Xo 2 t.t.U f d.G.N.b.N.N.b.b.N.V.b.3.a w g <.w.q.w.#.p > j b =.e.#.#.1.9.w.w.i.1.3.+.%.4.i.g.a.a.d.>.F m N V x F  .=.L 7 $   ",
";X;X. 2 t.r.] s f.G.V.N.G.V.M.N.G.G.n.2.a a ' <.2.w.9.$.b 0 r Y d.N.b.b.N.B.b.b.V.N.v.q.+.6.m.F.N.Z.H.A. .F G E E >.l.f.| i $   ",
";X;X. 2 r.r.] f f.J.L.K.J.J.K.K.J.L.H.p.f a ` 2.<.<.+.' v r U e.N.B.b.b.N.N.b.b.V.N.b.2.<.<.g.N.G.J.L.F.r.1.<.2.5.6.5.| 7 % ;X;X",
";X;Xo 2 t.r.K s u.z.x.d.A.S.S.A.d.z.z.6.a h #.q.7.2.4.O.Y  .1.b.N.B.n.n.V.N.b.b.D.N.b.2.+.<.g.F.J.J.G.S.p.1.` ) _ ) f w % ;X;X;X",
";X;Xo 2 i.t.K p O.,. .Y ;.6.7.;.Y *.,.O.i a o.a.v.a.p.6.6.r.w.b.N.N.a.v.N.M.b.q.M.M.b.2.+.6.m.F.L.G.d.4.4.' i < < 3 = $ ;X;X;X;X",
";X;X. 2 t.r.K w K K S S | +.+.[ S D ' K q w g 1.s.a.g.w.v.a.g.i.h.p.&.&.1.9.9.a.v.v.q.6.6.s.D.F.G.y...L S i %           ;X;X;X;X",
";X;Xo 2 r.t.U w K O.%.3.2.0.0.2.%.%.O.L 5 = 4 d O.4.<.+.4.4.4.;.<...s q e S | 4.4.4.4.4.A.S.M.v.7.] q $ $ $ ;X;X;X;X;X;X;X;X;X;X",
";X;Xo 2 r.h.:.] ;.s.f.b.n.n.n.M.b.6.| H B N N B H } ;.7.7.7.6.4.} H n V B n H ' ;.7.7.s.S.N.v.<.' w % . X ;X;X;X;X;X;X;X;X;X;X;X",
";X;Xo 2 t.D.S.f.A.D.G.H.G.G.H.H.H.r.U n / ~.~./ m J 5.D.S.D.S.6.S n ~ ~.Q.~ F I 6.S.D.S.n.v.<.' 7 % o ;X;X;X;X;X;X;X;X;X;X;X;X;X",
";X;X. 1 r.G.J.H.H.H.H.H.K.H.H.H.H.5.p x /.].]./.x A 5.H.K.L.F.r.r V ~.].].Q.V r r.F.L.F.v.<.' w $   ;X;X;X;X;X;X;X;X;X;X;X;X;X;X",
";X;X. 3 @.b.N.n.m.b.b.b.m.b.b.b.b.@.t x /.].].^.x t @.b.b.n.b.&.q V ~.].].~.B e %.b.B.a.2.' 7 $ ;X;X;X;X;X;X;X;X;X;X;X;X;X;X;X;X",
";X;X  % _ 2.0.2.#.#.2.i.0.2.&.#.2.) r z W.'.'.W.z e ] 2.%.1.1.{ u M ( '._.R.M 4 { 0.w.<.g I n C ;X;X;X;X;X;X;X;X;X;X;X;X;X;X;X;X",
";X;Xo % g +.<.{ S J | <.%.[ J D ..g e z / /.^./ l e g ..J J | K 0 x / /.j.~ x 4 ' +.+.' 7 P ~.].;X;X;X;X;X;X;X;X;X;X;X;X;X;X;X;X",
";X;XM n I ' [ | I I ] +.+.] I I X.' s A ^ j.j.^ A s ' } I s ' ] p A W j.8.-.H p ' ' K I v W.oX=X;X;X;X;X;X;X;X;X;X;X;X;X;X;X;X;X",
";X;X[.(.m y ) <.| | %.0.0.%.| | <.1.3.&.r.r.t.e.&.3.1.1. .| &.2.&.>.r.y.t.e.&.@.O.L 7 v (.oX*X-X;X;X;X;X;X;X;X;X;X;X;X;X;X;X;X;X",
";X;X;X[.( 8.c.}.).).}.|.|.}.).).{.|.|.|.|.|.|.|.|.|.}.K.).).}.|.|.|.K.|.|.|.|.{.).8.^ W.oX*X-X=X;X;X;X;X;X;X;X;X;X;X;X;X;X;X;X;X",
";X;X;X;X].[..X$XOXOX$X$X$X@X+X+X$X$X$X$XXXXXXX$X$X$X@X@XOXOXOXOX$X$XXXXXXXXX$X@XOX X[.oX*X-X;X;X;X;X;X;X;X;X;X;X;X;X;X;X;X;X;X;X",
";X;X;X;X%X%X%X%X%X%X%X%X%X%X%X%X%X%X%X%X%X%X%X%X%X%X%X%X%X%X%X#X%X%X%X%X%X%X%X#X%X&X*X=X=X=X;X;X;X;X;X;X;X;X;X;X;X;X;X;X;X;X;X;X",
";X;X;X;XR.R.R.R.R.R.R.R.R.R.R.R.R.R.R.R.R.R.R.R.E.R.E.R.R.R.E.R.R.R.R.R.R.R.R.R.R.E.;X;X;X;X;X;X;X;X;X;X;X;X;X;X;X;X;X;X;X;X;X;X",
";X;X;X;XT.T.T.T.T.T.T.T.T.T.T.T.T.Y.T.T.T.T.T.T.Y.Y.Y.Y.Y.Y.T.Y.T.T.T.T.T.T.T.T.T.;X;X;X;X;X;X;X;X;X;X;X;X;X;X;X;X;X;X;X;X;X;X;X",
";X;X;X;X;X;X;X;XU.U.U.U.U.U.U.U.U.U.U.U.U.Y.U.U.Y.Y.U.U.Y.U.U.U.U.U.U.U.U.U.U.;X;X;X;X;X;X;X;X;X;X;X;X;X;X;X;X;X;X;X;X;X;X;X;X;X",
";X;X;X;X;X;X;X;XY.Y.Y.Y.Y.Y.Y.Y.Y.Y.Y.Y.Y.Y.Y.Y.Y.Y.Y.Y.Y.Y.Y.Y.Y.Y.Y.Y.Y.Y.;X;X;X;X;X;X;X;X;X;X;X;X;X;X;X;X;X;X;X;X;X;X;X;X;X;X",
";X;X;X;X;X;X;X;X;X;X;X;X;X;X;X;X;X;X;X;X;X;X;X;X;X;X;X;X;X;X;X;X;X;X;X;X;X;X;X;X;X;X;X;X;X;X;X;X;X;X;X;X;X;X;X;X;X;X;X;X;X;X;X;X",
";X;X;X;X;X;X;X;X;X;X;X;X;X;X;X;X;X;X;X;X;X;X;X;X;X;X;X;X;X;X;X;X;X;X;X;X;X;X;X;X;X;X;X;X;X;X;X;X;X;X;X;X;X;X;X;X;X;X;X;X;X;X;X;X",
";X;X;X;X;X;X;X;X;X;X;X;X;X;X;X;X;X;X;X;X;X;X;X;X;X;X;X;X;X;X;X;X;X;X;X;X;X;X;X;X;X;X;X;X;X;X;X;X;X;X;X;X;X;X;X;X;X;X;X;X;X;X;X;X",
";X;X;X;X;X;X;X;X;X;X;X;X;X;X;X;X;X;X;X;X;X;X;X;X;X;X;X;X;X;X;X;X;X;X;X;X;X;X;X;X;X;X;X;X;X;X;X;X;X;X;X;X;X;X;X;X;X;X;X;X;X;X;X;X",
";X;X;X;X;X;X;X;X;X;X;X;X;X;X;X;X;X;X;X;X;X;X;X;X;X;X;X;X;X;X;X;X;X;X;X;X;X;X;X;X;X;X;X;X;X;X;X;X;X;X;X;X;X;X;X;X;X;X;X;X;X;X;X;X",
";X;X;X;X;X;X;X;X;X;X;X;X;X;X;X;X;X;X;X;X;X;X;X;X;X;X;X;X;X;X;X;X;X;X;X;X;X;X;X;X;X;X;X;X;X;X;X;X;X;X;X;X;X;X;X;X;X;X;X;X;X;X;X;X",
";X;X;X;X;X;X;X;X;X;X;X;X;X;X;X;X;X;X;X;X;X;X;X;X;X;X;X;X;X;X;X;X;X;X;X;X;X;X;X;X;X;X;X;X;X;X;X;X;X;X;X;X;X;X;X;X;X;X;X;X;X;X;X;X",
";X;X;X;X;X;X;X;X;X;X;X;X;X;X;X;X;X;X;X;X;X;X;X;X;X;X;X;X;X;X;X;X;X;X;X;X;X;X;X;X;X;X;X;X;X;X;X;X;X;X;X;X;X;X;X;X;X;X;X;X;X;X;X;X"
};
