/* XPM */
static char *result[] = {
/* columns rows colors chars-per-pixel */
"64 64 238 2 ",
"   c #0C0F12",
".  c #0C0F13",
"X  c #0D0F13",
"o  c #0D1013",
"O  c #0D1014",
"+  c #0E1014",
"@  c #0F1215",
"#  c #0F1318",
"$  c #181817",
"%  c #13171B",
"&  c #161718",
"*  c #161818",
"=  c #151A1F",
"-  c #181818",
";  c #1C1C1B",
":  c #1B1D1F",
">  c #2B251E",
",  c #2D261E",
"<  c #2E271F",
"1  c #2E281F",
"2  c #1B1F24",
"3  c #2D2720",
"4  c #2D2722",
"5  c #2E2820",
"6  c #2F2820",
"7  c #2E2926",
"8  c #262728",
"9  c #292B2F",
"0  c #302921",
"q  c #302A21",
"w  c #312A21",
"e  c #312A22",
"r  c #322B22",
"t  c #322B23",
"y  c #332B23",
"u  c #332C23",
"i  c #3A2F22",
"p  c #3F3327",
"a  c #38332E",
"s  c #2F3236",
"d  c #323232",
"f  c #303236",
"g  c #303336",
"h  c #313437",
"j  c #383737",
"k  c #383837",
"l  c #313438",
"z  c #393838",
"x  c #393938",
"c  c #463826",
"v  c #43382A",
"b  c #4E3D29",
"n  c #4A392E",
"m  c #443D36",
"M  c #4C3D30",
"N  c #52402B",
"B  c #52412B",
"V  c #53412B",
"C  c #53422C",
"Z  c #55432D",
"A  c #56442E",
"S  c #57452E",
"D  c #49423A",
"F  c #49433A",
"G  c #4A433B",
"H  c #4A443B",
"J  c #534331",
"K  c #564636",
"L  c #584332",
"P  c #584630",
"I  c #584730",
"U  c #594731",
"Y  c #5B4831",
"T  c #5A4832",
"R  c #5B4934",
"E  c #5D4A34",
"W  c #5C4A35",
"Q  c #5F4C36",
"!  c #5F4D36",
"~  c #604A2E",
"^  c #604D36",
"/  c #604D37",
"(  c #654F36",
")  c #6B4F3B",
"_  c #61503C",
"`  c #66553F",
"'  c #67563F",
"]  c #6F533C",
"[  c #735835",
"{  c #75563F",
"}  c #735B3F",
"|  c #775B3E",
" . c #7A5D3F",
".. c #7E6039",
"X. c #7E603A",
"o. c #80613B",
"O. c #81623C",
"+. c #84643D",
"@. c #85663F",
"#. c #876740",
"$. c #846643",
"%. c #886146",
"&. c #8E6746",
"*. c #876840",
"=. c #896A43",
"-. c #896B45",
";. c #8C6847",
":. c #8A6C45",
">. c #8B6C45",
",. c #8D6D45",
"<. c #8C6C46",
"1. c #8E6D46",
"2. c #8D6649",
"3. c #896B48",
"4. c #8A6C49",
"5. c #946F40",
"6. c #996C4D",
"7. c #937148",
"8. c #91704A",
"9. c #95744D",
"0. c #95744E",
"q. c #97764E",
"w. c #997148",
"e. c #98774F",
"r. c #9E784D",
"t. c #9C6F50",
"y. c #9E7450",
"u. c #A0724C",
"i. c #A8774F",
"p. c #A47A49",
"a. c #A77D48",
"s. c #A87E48",
"d. c #A97F4A",
"f. c #AA7F4A",
"g. c #AB7C4C",
"h. c #A17150",
"j. c #A27353",
"k. c #A97B54",
"l. c #AE7E57",
"z. c #AA804A",
"x. c #AB804A",
"c. c #AB814A",
"v. c #AB814B",
"b. c #B3824F",
"n. c #B1854D",
"m. c #B6864D",
"M. c #BC8B4D",
"N. c #BE8B4F",
"B. c #BD8C4D",
"V. c #AA8052",
"C. c #B18650",
"Z. c #B48657",
"A. c #B58851",
"S. c #B58951",
"D. c #B68A54",
"F. c #B78B55",
"G. c #B98D57",
"H. c #BA8D57",
"J. c #B98E57",
"K. c #B08859",
"L. c #BA8A5A",
"P. c #BA8E58",
"I. c #BC8F58",
"U. c #BD8C5B",
"Y. c #BF9159",
"T. c #C4904E",
"R. c #C5914E",
"E. c #C6914E",
"W. c #C08F51",
"Q. c #C19052",
"!. c #C49254",
"~. c #C49355",
"^. c #C0915A",
"/. c #C1945E",
"(. c #C4945C",
"). c #C8975D",
"_. c #CB9858",
"`. c #CA985A",
"'. c #CC9958",
"]. c #CF9B5A",
"[. c #CA985E",
"{. c #CB995F",
"}. c #CF9C5C",
"|. c #CF9D5E",
" X c #D09C5C",
".X c #D09D5C",
"XX c #D19E5D",
"oX c #D09D5F",
"OX c #D19E5F",
"+X c #D39F5E",
"@X c #D6A15D",
"#X c #C59761",
"$X c #C69862",
"%X c #C69962",
"&X c #CA9B64",
"*X c #CB9C64",
"=X c #D29F60",
"-X c #D29F61",
";X c #D2A061",
":X c #D3A061",
">X c #D3A062",
",X c #D4A060",
"<X c #D4A061",
"1X c #D4A161",
"2X c #D4A162",
"3X c #D5A262",
"4X c #D6A262",
"5X c #D7A262",
"6X c #D7A362",
"7X c #D6A263",
"8X c #D6A364",
"9X c #D7A364",
"0X c #D9A360",
"qX c #D8A362",
"wX c #D8A363",
"eX c #D8A462",
"rX c #D8A463",
"tX c #D9A463",
"yX c #DAA462",
"uX c #DBA562",
"iX c #DAA564",
"pX c #DBA664",
"aX c #DBA665",
"sX c #DDA765",
"dX c #DDA767",
"fX c #DBA769",
"gX c #DEA968",
"hX c #DEA969",
"jX c #DFAA6C",
"kX c #DFAB6C",
"lX c #E5AE6A",
"zX c #E3AD6C",
"xX c #E3AD6D",
"cX c #E4AD6C",
"vX c #E4AE6C",
"bX c #E4AE6D",
"nX c #E6AE6C",
"mX c None",
/* pixels */
"mXmXmXmXmXmXmXmXmXmXmXmXmXmXmXmXmXmXmXmXmXmXmXmXmXmXmXmXmXmXmXmXmXmXmXmXmXmXmXmXmXmXmXmXmXmXmXmXmXmXmXmXmXmXmXmXmXmXmXmXmXmXmXmX",
"mXmXmXmXmXmXmXmXmXmXmXmXmXmXmXmXmXmXmXmXmXmXmXmXmXmXmXmXmXmXmXmXmXmXmXmXmXmXmXmXmXmXmXmXmXmXmXmXmXmXmXmXmXmXmXmXmXmXmXmXmXmXmXmX",
"mXmXmXmXmXmXmXmXmXmXmXmXmXmXmXmXmXmXmXmXmXmXmXmXmXmXmXmXmXmXmXmXmXmXmXmXmXmXmXmXmXmXmXmXmXmXmXmXmXmXmXmXmXmXmXmXmXmXmXmXmXmXmXmX",
"mXmXmXmXmXmXmXmXmXmXmXmXmXmXmXmXmXmXmXmXmXmXmXmXmXmXmXmXmXmXmXmXmXmXmXmXmXmXmXmXmXmXmXmXmXmXmXmXmXmXmXmXmXmXmXmXmXmXmXmXmXmXmXmX",
"mXmXmXmXmXmXmXmXmXmXmXmXmXmXmXmXmXmXmXmXmXmXmXmXmXmXmXmXmXmXmXmXmXmXmXmXmXmXmXmXmXmXmXmXmXmXmXmXmXmXmXmXmXmXmXmXmXmXmXmXmXmXmXmX",
"mXmXmXmXmXmXmXmXmXmXmXmXmXmXmXmXmXmXmXmXmXmXmXmXmXmXmXmXmXmXmXmXmXmXmXmXmXmXmXmXmXmXmXmXmXmXmXmXmXmXmXmXmXmXmXmXmXmXmXmXmXmXmXmX",
"mXmXmXmXmXmXmXmXmXmXmXmXmXmXmXmXmXmXmXmXmXmXmXmXmXmXmXmXmXmXmXmXmXmXmXmXmXmXmXmXmXmXmXmXmXmXmXmXmXmXmXmXmXmXmXmXmXmXmXmXmXmXmXmX",
"mXmXmXmXmXmXmXmXmXmXmXmXmXmXmXmXmXmXmXmXmXmXmXmXmXmXmXmXmXmXmXmXmXmXmXmXmXmXmXmXmXmXmXmXmXmXmXmXmXmXmXmXmXmXmXmXmXmXmXmXmXmXmXmX",
"mXmXmXmXmXmXmXmXmXmXmXmXmXmXmXmXmXmXmXmXmXmXmXmXmXmXmXmXmXmXmXmXmXmXmXmXmXmXmXmXmXmXmXmXmXmXmXmXmXmXmXmXmXmXmXmXmXmXmXmXmXmXmXmX",
"mXmXmXmXmXmXmXmXmXmXmXmXmXmXmXmXmXmXmXmXmXmXmXmXmXmXmXmXmXmXmXmXmXmXmXmXmXmXmXmXmXmXmXmXmXmXmXmXmXmXmXmXmXmXmXmXmXmXmXmXmXmXmXmX",
"mXmXmXmXmXmXmXmXmXmXmXmXmXmXmXmXmXmXmXmXmXmXmXmXmXmXmXmXmXmXmXmXmXmXmXmXmXmXmXmXmXmXmXmXmXmXmXmXmXmXmXmXmXmXmXmXmXmXmXmXmXmXmXmX",
"mXmXmXmXmXmXmXmXmXmXmXmXmXmXmXmXmXmXmXmXmXmXmXmXmXmXmXmXmXmXmXmXmXmXmXmXmXmXmXmXmXmXmXmXmXmXmXmXmXmXmXmXmXmXmXmXmXmXmXmXmXmXmXmX",
"mXmXmXmXmXmXmXmXmXmXmXmXmXmXmXmXmXmXmXmXmXmXmXmXmXmXmXmXmXmXmXmXmXmXmXmXmXmXmXmXmXmXmXmXmXmXmXmXmXmXmXmXmXmXmXmXmXmXmXmXmXmXmXmX",
"mXmXmXmXmXmXmXmXmXmXmXmXmXmXmXmXmXmXmXmXmXmXmXmXmXmXmXmXmXmXmXmXmXmXmXmXmXmXmXmXmXmXmXmXmXmXmXmXmXmXmXmXmXmXmXmXmXmXmXmXmXmXmXmX",
"mXmXmXmXmXmXmXmXmXmXmXmXmXmXmXmXmXmXmXmXmXmXmXmXmXmXmXmXmXmXmXmXmXmXmXmXmXmXmXmXmXmXmXmXmXmXmXmXmXmXmXmXmXmXmXmXmXmXmXmXmXmXmXmX",
"mXmXmXmXmXmXmXmXmXmXmXmXmXmXmXmXmXmXmXmXmXmXmXmXmXmXmXmXmXmXmXmXmXmXmXmXmXmXmXmXmXmXmXmXmXmXmXmXmXmXmXmXmXmXmXmXmXmXmXmXmXmXmXmX",
"mXmXmXmXmXmXmXmXmXmXmXmXmXmXmXmXmXmXmXmXmXmXmXmXmXmXmXmXmXmXmXmXmXmXmXmXmXmXmXmXmXmXmXmXmXmXmXmXmXmXmXmXmXmXmXmXmXmXmXmXmXmXmXmX",
"mXmXmXmXmXmXmXmXmXmXmXmXmXmXmXmXmXmXmXmXmXmXmXmXmXmXmXmXmXmXmXmXmXmXmXmXmXmXmXmXmXmXmXmXmXmXmXmXmXmXmXmXmXmXmXmXmXmXmXmXmXmXmXmX",
"mXmXmXmXmXmXmXmXmXmXmXmXmXmXmXmXmXmXmXmXmXmXmXmXmXmXmXmXmXmXmXmXmXmXmXmXmXmXmXmXmXmXmXmXmXmXmXmXmXmXmXmXmXmXmXmXmXmXmXmXmXmXmXmX",
"mXmXmXmXmXmXmXmXmXmXmXmXmXmXmXmXmXmXmXmXmXmXmXmXmXmXmXmXmXmXmXmXmXmXmXmXmXmXmXmXmXmXmXmXmXmXmXmXmXmXmXmXmXmXmXmXmXmXmXmXmXmXmXmX",
"mXmXmXmXmXmXmXmXmXmXmXmXmXmXmXmXmXmXmXmXmXmXmXmXmXmXmXmXmXmXmXmXmXmXmXmXmXmXmXmXmXmXmXmXmXmXmXmXmXmXmXmXmXmXmXmXmXmXmXmXmXmXmXmX",
"mXmXmXmXmXmXmXmXmXmXmXmXmXmXmXmXmXmXmXmXmXmXmXmXmXmXmXmXmXmXmXmXmXmXmXmXmXmXmXmXmXmXmXmXmXmXmXmXmXmXmXmXmXmXmXmXmXmXmXmXmXmXmXmX",
"mXmXmXmXmXmXmXmXmXmXmXmXmXmXmXmXmXmXmXmXmXmXmXmXmXmXmXmXmXmXmXmXmXmXmXmXmXmXmXmXmXmXmXmXmXmXmXmXmXmXmXmXmXmXmXmXmXmXmXmXmXmXmXmX",
"mXmXmXmXmXmXmXmXmXmXmXmXmXmXmXmXmXmXmXmXmXmXmXmXmXmXmXmXmXmXmXmXmXmXmXmXmXmXmXmXmXmXmXmXmXmXmXmXmXmXmXmXmXmXmXmXmXmXmXmXmXmXmXmX",
"mXmXmXmXmXmXmXmXmXmXmXmXmXmXmXmXmX                                                            mXmXmXmXmXmXmXmXmXmXmXmXmXmXmXmXmX",
"mXmXmXmXmXmXmXmXmXmXmXmXmXmXmXmX- - - - - - - - - - - - - - - - - - - - - - - - - - - - - - - - mXmXmXmXmXmXmXmXmXmXmXmXmXmXmXmX",
"mXmXmXmXmXmXmXmXmXmXmXmXmXmXmXmXe t y u y y y y y y y y y y y y y y y y y y y y y y y y u y t e mXmXmXmXmXmXmXmXmXmXmXmXmXmXmXmX",
"mXmXmXmXmXmXmXmXmXmXmXmXmXmXmXv J W ^ / / ! Q Q Q Q Q Q Q Q Q Q Q Q Q Q Q Q Q Q Q Q ! / / ^ W J v mXmXmXmXmXmXmXmXmXmXmXmXmXmXmX",
"mXmXmXmXmXmXmXmXmXmXmXmXmX- e J } 4.0.e.q.9.9.9.9.9.9.9.9.9.9.9.9.9.9.9.9.9.9.9.9.9.9.q.e.0.4.} J e - mXmXmXmXmXmXmXmXmXmXmXmXmX",
"mXmXmXmXmXmXmXmXmXmXmXmX  - t R 3.K.#X*X&X%X$X$X$X$X$X$X$X$X$X$X$X$X$X$X$X$X$X$X$X$X%X&X*X#XK.3.R t -   mXmXmXmXmXmXmXmXmXmXmXmX",
"mXmXmXmXmXmXmXmXmXmXmXmX  - r E 8./.fXbXxXkXjXkXkXjXjXjXjXjXjXjXjXjXjXjXjXjXjXkXkXjXkXxXbXfX/.8.E r -   mXmXmXmXmXmXmXmXmXmXmXmX",
"mXmXmXmXmXmXmXmXmXmXmXmXX $ w T 1.Y.aXlXnXzXcXbXbXvXvXvXvXvXvXvXvXvXvXvXvXvXvXbXbXcXzXnXlXaXY.1.T w $ X mXmXmXmXmXmXmXmXmXmXmXmX",
"mXmXmXmXmXmXmXmXmXmXmXmXo $ 6 A #.A. XuXsXdXgXhXgXgXgXgXgXgXgXgXgXgXgXgXgXgXgXgXhXgXdXsXuX XA.#.A 6 $ o mXmXmXmXmXmXmXmXmXmXmXmX",
"mXmXmXmXmXmXmXmXmXmXmXmX+ $ < V o.z.!.].+X1X7X9X8X7X7X7X7X7X7X7X7X7X7X7X7X7X7X8X9X7X1X+X].!.z.o.V < $ + mXmXmXmXmXmXmXmXmXmXmXmX",
"mXmXmXmXmXmXmXmXmXmXmXmX+ $ < B X.s.Q.'..XOX:X2X2X:X:X:X:X:X:X:X:X:X:X:X:X:X:X2X2X:XOX.X'.Q.s.X.B < $ + mXmXmXmXmXmXmXmXmXmXmXmX",
"mXmXmXmXmXmXmXmXmXmXmXmXO $ 1 C O.v.~.].XXOX=X:X:X:X;X;X;X;X;X;X;X;X;X;X;X;X:X:X:X=XOXXX].~.v.O.C 1 $ O mXmXmXmXmXmXmXmXmXmXmXmX",
"mXmXmXmXmXmXmXmXmXmXmXmXo $ 6 A @.C.`.+X,X=X:X:X:X:X:X:X:X:X:X:X:X:X:X:X:X:X:X:X:X:X=X,X+X`.C.@.A 6 $ o mXmXmXmXmXmXmXmXmXmXmXmX",
"mXmXmXmXmXmXmXmXmXmXmXmXo $ 0 P =.D.|.6X5X:X:X:X:X:X:X:X:X:X:X:X:X:X:X:X:X:X:X:X:X:X:X5X6X|.D.=.P 0 $ o mXmXmXmXmXmXmXmXmXmXmXmX",
"mXmXmXmXmXmXmXmXmXmXmXmXX $ q U >.G.-XiXrX1X:X:X:X:X:X:X:X:X:X:X:X:X:X:X:X:X:X:X:X:X1XrXiX-XG.>.U q $ X mXmXmXmXmXmXmXmXmXmXmXmX",
"mXmXmXmXmXmXmXmXmXmXmXmX. $ w T <.P.>XpXtX2X:X:X:X:X:X:X:X:X:X:X:X:X:X:X:X:X:X:X:X:X2XtXpX>XP.<.T w $ . mXmXmXmXmXmXmXmXmXmXmXmX",
"mXmXmXmXmXmXmXmXmXmXmXmX. $ w T <.P.>XpXtX2X:X:X:X:X:X:X:X:X:X:X:X:X:X:X:X:X:X:X:X:X2XtXpX>XP.<.T w $ . mXmXmXmXmXmXmXmXmXmXmXmX",
"mXmXmXmXmXmXmXmXmXmXmXmXX $ q U >.G.-XiXrX1X:X:X:X:X:X:X:X:X:X:X:X:X:X:X:X:X:X:X:X:X1XrXiX-XG.>.U q $ X mXmXmXmXmXmXmXmXmXmXmXmX",
"mXmXmXmXmXmXmXmXmXmXmXmXo $ 0 P =.F.oXeXqX1X1X1X1X1X1X<X:X:X:X:X:X:X:X:X<X1X1X1X1X1X1XqXeXoXF.=.P 0 $ o mXmXmXmXmXmXmXmXmXmXmXmX",
"mXmXmXmXmXmXmXmXmXmXmXmXo $ 6 S *.S.}.0XyXqXrXrXrXrXwX6X4X3X3X1X1X3X3X4X6XwXrXrXrXrXqXyX0X}.S.*.S 6 $ o mXmXmXmXmXmXmXmXmXmXmXmX",
"mXmXmXmXmXmXmXmXmXmXmXmXO $ 1 Z +.n._.@X0XeXiXiXiXiXtXrX6X4X3X3X3X3X4X6XrXtXiXiXiXiXeX0X@X_.n.+.Z 1 $ O mXmXmXmXmXmXmXmXmXmXmXmX",
"mXmXmXmXmXmXmXmXmXmXmXmX+ $ < N ..a.W._.}.oX-X:X;X-X-X-X;X:X:X:X:X:X:X;X-X-X-X;X:X-XoX}._.W.a...N < $ + mXmXmXmXmXmXmXmXmXmXmXmX",
"mXmXmXmXmXmXmXmXmXmXmXmX+ $ , b [ 5.a.n.S.F.G.J.G.H.I.^.(.).[.{.{.[.).(.^.I.H.G.J.G.F.S.n.a.5.[ b , $ + mXmXmXmXmXmXmXmXmXmXmXmX",
"mXmXmXmXmXmXmXmXmXmXmXmXmX$ > c ~ [ ..+.*.=.>.>.>.,.7.r.V.Z.L.U.U.L.Z.V.r.7.,.>.>.>.=.*.+...[ ~ c > $ mXmXmXmXmXmXmXmXmXmXmXmXmX",
"mXmXmXmXmXmXmXmXmXmXmXmXmXmXmXi c b N Z S P U I P Y ( | ;.y.k.l.l.k.y.;.| ( Y P I U P S Z N b c i mXmXmXmXmXmXmXmXmXmXmXmXmXmXmX",
"mXmXmXmXmXmXmXmXmXmXmXmXmXmXmXmX> , < 1 6 0 0 5 3 w p L { 2.t.j.j.t.2.{ L p w 3 5 0 0 6 1 < , > mXmXmXmXmXmXmXmXmXmXmXmXmXmXmXmX",
"mXmXmXmXmXmXmXmXmXmXmXmXmXmXmXmX$ $ $ $ $ $ - & * ; 4 n ) %.6.h.h.6.%.) n 4 ; * & - $ $ $ $ $ $ mXmXmXmXmXmXmXmXmXmXmXmXmXmXmXmX",
"mXmXmXmXmXmXmXmXmXmXmXmXmXmXmXmXmX+ + o . o @ # % : 7 M ] &.u.i.i.u.&.] M 7 : % # @ o . o + + mXmXmXmXmXmXmXmXmXmXmXmXmXmXmXmXmX",
"mXmXmXmXmXmXmXmXmXmXmXmXmXmXmXmXmXmXmXmXmXmXmX= 2 8 a K  .w.g.b.b.g.w. .K a 8 2 = mXmXmXmXmXmXmXmXmXmXmXmXmXmXmXmXmXmXmXmXmXmXmX",
"mXmXmXmXmXmXmXmXmXmXmXmXmXmXmXmXmXmXmXmXmXmXmXmX9 d m _ $.p.m.N.N.m.p.$._ m d 9 mXmXmXmXmXmXmXmXmXmXmXmXmXmXmXmXmXmXmXmXmXmXmXmX",
"mXmXmXmXmXmXmXmXmXmXmXmXmXmXmXmXmXmXmXmXmXmXmXmXs j D ` -.d.M.T.T.M.d.-.` D j s mXmXmXmXmXmXmXmXmXmXmXmXmXmXmXmXmXmXmXmXmXmXmXmX",
"mXmXmXmXmXmXmXmXmXmXmXmXmXmXmXmXmXmXmXmXmXmXmXmXl x H ' :.c.B.E.E.B.c.:.' H x l mXmXmXmXmXmXmXmXmXmXmXmXmXmXmXmXmXmXmXmXmXmXmXmX",
"mXmXmXmXmXmXmXmXmXmXmXmXmXmXmXmXmXmXmXmXmXmXmXmXh z G ' :.x.B.R.R.B.x.:.' G z h mXmXmXmXmXmXmXmXmXmXmXmXmXmXmXmXmXmXmXmXmXmXmXmX",
"mXmXmXmXmXmXmXmXmXmXmXmXmXmXmXmXmXmXmXmXmXmXmXmXg k F ` -.z.M.T.T.M.z.-.` F k g mXmXmXmXmXmXmXmXmXmXmXmXmXmXmXmXmXmXmXmXmXmXmXmX",
"mXmXmXmXmXmXmXmXmXmXmXmXmXmXmXmXmXmXmXmXmXmXmXmXf k D ` -.f.M.T.T.M.f.-.` D k f mXmXmXmXmXmXmXmXmXmXmXmXmXmXmXmXmXmXmXmXmXmXmXmX",
"mXmXmXmXmXmXmXmXmXmXmXmXmXmXmXmXmXmXmXmXmXmXmXmXmXk D ` -.f.M.T.T.M.f.-.` D k mXmXmXmXmXmXmXmXmXmXmXmXmXmXmXmXmXmXmXmXmXmXmXmXmX",
"mXmXmXmXmXmXmXmXmXmXmXmXmXmXmXmXmXmXmXmXmXmXmXmXmXmXmXmXmXmXmXmXmXmXmXmXmXmXmXmXmXmXmXmXmXmXmXmXmXmXmXmXmXmXmXmXmXmXmXmXmXmXmXmX",
"mXmXmXmXmXmXmXmXmXmXmXmXmXmXmXmXmXmXmXmXmXmXmXmXmXmXmXmXmXmXmXmXmXmXmXmXmXmXmXmXmXmXmXmXmXmXmXmXmXmXmXmXmXmXmXmXmXmXmXmXmXmXmXmX",
"mXmXmXmXmXmXmXmXmXmXmXmXmXmXmXmXmXmXmXmXmXmXmXmXmXmXmXmXmXmXmXmXmXmXmXmXmXmXmXmXmXmXmXmXmXmXmXmXmXmXmXmXmXmXmXmXmXmXmXmXmXmXmXmX",
"mXmXmXmXmXmXmXmXmXmXmXmXmXmXmXmXmXmXmXmXmXmXmXmXmXmXmXmXmXmXmXmXmXmXmXmXmXmXmXmXmXmXmXmXmXmXmXmXmXmXmXmXmXmXmXmXmXmXmXmXmXmXmXmX"
};
